/* XPM */
static char *_d27a61e850d47e2d240a3b61af72901waJJJaYmSm5CwDai[] = {
/* columns rows colors chars-per-pixel */
"64 64 253 2 ",
"   c #050700",
".  c #190D04",
"X  c #091706",
"o  c #131D0C",
"O  c #161807",
"+  c #191C15",
"@  c #0C1D12",
"#  c #390417",
"$  c #281717",
"%  c #2B1212",
"&  c #14220D",
"*  c #182408",
"=  c #152412",
"-  c #1B2413",
";  c #1C2A15",
":  c #1D2B1A",
">  c #1A241A",
",  c #1D3418",
"<  c #0F2007",
"1  c #252809",
"2  c #293506",
"3  c #222C1C",
"4  c #262919",
"5  c #33281B",
"6  c #23331C",
"7  c #2B381B",
"8  c #37391C",
"9  c #35340A",
"0  c #381A24",
"q  c #391F32",
"w  c #1B2825",
"e  c #152A26",
"r  c #2B2C23",
"t  c #252B27",
"y  c #382827",
"u  c #243322",
"i  c #2B3423",
"p  c #2B3C24",
"a  c #2A372A",
"s  c #343B2C",
"d  c #373729",
"f  c #2C3A34",
"g  c #2A3836",
"h  c #383B36",
"j  c #322732",
"k  c #151F20",
"l  c #470A1E",
"z  c #481928",
"x  c #56172C",
"c  c #5A1D36",
"v  c #4D132C",
"b  c #63193C",
"n  c #46272B",
"m  c #4A2833",
"M  c #5C2C3D",
"N  c #572737",
"B  c #433B34",
"V  c #493737",
"C  c #563638",
"Z  c #4B322E",
"A  c #66253B",
"S  c #6A2D3D",
"D  c #3A451A",
"F  c #324217",
"G  c #2D4225",
"H  c #32432C",
"J  c #39472A",
"K  c #354333",
"L  c #3B4333",
"P  c #3A4B34",
"I  c #35433C",
"U  c #3B443B",
"Y  c #3C4C3B",
"T  c #374835",
"R  c #3D5237",
"E  c #3D5026",
"W  c #444A1A",
"Q  c #464A29",
"!  c #465528",
"~  c #535B29",
"^  c #44443A",
"/  c #444C3B",
"(  c #484737",
")  c #54463B",
"_  c #44543C",
"`  c #485838",
"'  c #565936",
"]  c #586637",
"[  c #4A6137",
"{  c #646D3A",
"}  c #363C43",
"|  c #661D41",
" . c #7D1F43",
".. c #5A2B42",
"X. c #5B3845",
"o. c #4B3842",
"O. c #682943",
"+. c #762B47",
"@. c #633243",
"#. c #69374A",
"$. c #76364B",
"%. c #793A54",
"&. c #723452",
"*. c #7F3F64",
"=. c #3D4B43",
"-. c #394543",
";. c #314549",
":. c #484C46",
">. c #584846",
",. c #485646",
"<. c #535345",
"1. c #55544B",
"2. c #5B544B",
"3. c #545B4A",
"4. c #5B5A4D",
"5. c #575745",
"6. c #5C4752",
"7. c #4B5955",
"8. c #5A5955",
"9. c #65484A",
"0. c #63584D",
"q. c #6B4A52",
"w. c #764755",
"e. c #665A56",
"r. c #765958",
"t. c #724E4C",
"y. c #586748",
"u. c #576557",
"i. c #52684B",
"p. c #687545",
"a. c #686659",
"s. c #75655C",
"d. c #6E764E",
"f. c #795B64",
"g. c #715665",
"h. c #596967",
"j. c #576B6A",
"k. c #6C6C63",
"l. c #666A68",
"z. c #796965",
"x. c #67736A",
"c. c #777469",
"v. c #6B7673",
"b. c #777975",
"n. c #6F6C72",
"m. c #565E68",
"M. c #863658",
"N. c #8C2A53",
"B. c #973A66",
"V. c #AB3C70",
"C. c #84455C",
"Z. c #835B59",
"A. c #82645D",
"S. c #98496A",
"D. c #8A5866",
"F. c #9A5677",
"G. c #934D6A",
"H. c #A84A76",
"J. c #B6497C",
"K. c #A65677",
"L. c #B05177",
"P. c #836C6B",
"I. c #886866",
"U. c #926A6C",
"Y. c #85746C",
"T. c #94736D",
"R. c #866A77",
"E. c #976975",
"W. c #877975",
"Q. c #937473",
"!. c #987B79",
"~. c #A37A7B",
"^. c #A6637A",
"/. c #C2477E",
"(. c #798658",
"). c #70814F",
"_. c #7B8279",
"`. c #75886B",
"'. c #858C5B",
"]. c #8A9668",
"[. c #949C6A",
"{. c #89857B",
"}. c #99847C",
"|. c #8D956D",
" X c #A6857D",
".X c #99A574",
"XX c #A6AF7A",
"oX c #717B83",
"OX c #B84A81",
"+X c #B65885",
"@X c #B05A85",
"#X c #967684",
"$X c #AD6E8A",
"%X c #C74B84",
"&X c #C7588B",
"*X c #D45A93",
"=X c #D1538D",
"-X c #C96995",
";X c #E578AD",
":X c #DC76AA",
">X c #C53E80",
",X c #7A8785",
"<X c #778B97",
"1X c #7D919D",
"2X c #6F8491",
"3X c #7D92A2",
"4X c #798EA1",
"5X c #898985",
"6X c #9A8885",
"7X c #99948B",
"8X c #869699",
"9X c #979796",
"0X c #888F92",
"qX c #A78886",
"wX c #B28C89",
"eX c #A9938A",
"rX c #B4968E",
"tX c #AB9895",
"yX c #B99995",
"uX c #AC8D91",
"iX c #A8A197",
"pX c #B8A59A",
"aX c #ACB589",
"sX c #869BAC",
"dX c #8A9EAD",
"fX c #8698A4",
"gX c #899EB0",
"hX c #9398A6",
"jX c #8DA2B3",
"kX c #95A7B5",
"lX c #96A6AD",
"zX c #BBA8A3",
"xX c #ADB1AC",
"cX c #A8A58C",
"vX c #C49B99",
"bX c #C18899",
"nX c #C4A59E",
"mX c #E98ABA",
"MX c #C7AAA5",
"NX c #C7B6A9",
"BX c #D1B4AF",
"VX c #CF93AD",
"CX c #B9C591",
"ZX c #BCD2A1",
"AX c #C5CF9A",
"SX c #CDC9B5",
"DX c #DAE7B4",
"FX c #AABAC4",
"GX c #F495C5",
"HX c #B2C2CB",
"JX c #CCD0CF",
"KX c #EAD7CF",
"LX c #E1F5C0",
/* pixels */
"L ; i s 3 d ( 8 W [.] 1 ! y.y.' (.).] ] E ] E 6 4 i L 5.1.<.<.B ^ :.1.<.L i s / 6 G i.p.J , , * G _ ` P G H H G p P U :.k.k.2.:.",
"i ; i s - O 4 1 ] '.~ W p.y.` E ~ ).(.d.d.y.Q J 5.y.a.<.( 4.a.e.4.a.a.u./ s i p p 6 G J G R i.d.i.i.i.` G 6 6 p Y T K :.k.c.4.:.",
"o o 4 3 o X 4 Q p.(.p.).p.! ` [ D ] d.] (.] ! y.y.u.k.<.1.c.<.d ( <.4.1.<.3.3.,._ P J R ` ` [ [ i.` R R G ; , H Y Y ,.4.8.8.2.:.",
"- u 3 - 4 4 ( d.d.~ W p.{ ! ] ` E ! ! ! y.! ! y.5.3.b.k.b.{.B $ >.>.( ( <.a.u./ ,._ P _ i.` R ` ` T P ` _ T R u._ / 3.3.<.4.1.d ",
"3 L i + 4 d J ' y.{ p.].] F p.d.] ! ! p.` ! ` _ / <.b.c.k.e.r y r y y d 4.W.b.a.s L _ y.u.,.T T _ R R _ _ R ,.i.,./ L ^ 4.b.a.$ ",
"o 6 u 3 s L 8 7 aXaXXXCX.X(.].d.(.p.p.(.Q ! 5.3.( ^ <.<.2.h . y V V B B 4.c.z.1.s L ,.a.u.P 6 ; P J H 6 6 p H H Y Y L ^ a.{.k.r ",
"* 3 6 L / ^ d Q aXAXCXaX.X).].|.(.p.] y.J J <.4.e.>.h V 2.B $ B >.o.V B ) e.a.a.<.i u s i p T P H H p 6 6 p p p 3 s L / k.b.a.( ",
"6 * & 6 6 & 1 J p.(.~ ~ { ~ d.(.] ! D 7 ! s ^ B e.e.h d V y d 0.Y.z.9.n 5 y ( 2.<.- o 3 : i P H 6 6 6 p p 6 , , : 3 4 ^ c.b.4.( ",
"3 X * 3 3 & 1 1 8 |.].D W 2 F * 2 * D Q J ( B B >.6.o.h y y V z.!.qX6Xr.V y y d d 4 - - 3 / Y = & ; 6 6 : = & & o o 3 s _.{.0.^ ",
"< X X & - 3 4 1 * ' W * * 1 2 2 ! [ ] ! Q ( y y r y 0 y y y V z.6XuXqXP.e.>.B d ^ r i :.,.T u = 6 6 3 ; 6 p H H ; / 3.L a.k.a.) ",
"; G P _ _ _ ( 8 D ] ~ 1 9 d.].[.).aX].y.( 5 4 d 0 $ $ $ 0 y >.z.!.}.!.Q.P.s.>.B h 4 4 / ,.u o 3 u 3 ; ; H i.u.u.,._ / / a.a.0.( ",
"J ` ` _ ,.a.{.7XaX.X[.~ d.[.XX[.CXDX.Xp.Q 1 y >.V y $ % % 0 >.z.T.U.Y.P.P.z.2.d + + O - a u = u 3 3 ; 6 P u.a.i._ ,.3.4.a.<.5.<.",
"y.y.` _ ,./ / y.d.(.aX'.d.~ { d.AXaXp.! 8 5 >.e.>.V 0 % $ n >.P.}.T.T.P.s.r.>.y O 4 o X : u = = ; 3 3 3 p Y Y s L ,.5./ 0.0.s.( ",
"F G G ,.x.3.7 4 ` .XAX[.{ ~ 2 * ).] D D 8 d >.z.6.q.V n >.r.s.Q.qXQ.T.Y.s.z.e.B d 4 + O o @ @ = & = = & = : 3 : L u - d a.a.Y.( ",
"y.` 7 p ,./ - * Q '.'.d.[.XX(.W ] p.] Q 8 5 B W.r.P.9.C P.}.P.P.r.9.t.r.r.s.s.B r 4 4 ; o & : , ; & o = = = - 3 - X O ^ 4.) c.0.",
"! ` 6 < 6 6 < * 7 ] d.p.'.~ '.AXZXAX.XD 8 5 y 6XP.#X9.Z Y.6Xr.9.n % n C C 9.>.4   + s L p K Y p p 6 3 u 6 = & ; ; - o d a.a.c.d ",
"8 4 * < 6 6 & p 7 ' D W ' 2 aXDXLXZX(.y.8 . ) Y.I.!.r.y z.qX!.r.C C Z Z >.B ( s J ,._ H H H u ; i u : = = & o o o o o i a.e.e.>.",
"1 O O < , , , i.y.].y.D { (.'.aX(.(.] ' Q y s.!.U.!.r.n z.}. X!.r.t.Z e.s.) 0.y.5._ P R _ H , , s a u : = = : : u : + d a.e.2.B ",
"7 i p J i.P J `.AXd.p.'.d.(.~ 2 O 8 d ) C C U.#XE.E.t.Z r.s.I.U.T.Y.A.qXz.) d ( s H p , & X X : i u : : ; = = = o o + r 4.2.2.^ ",
"i i 6 7 ` E D (.~ D W D ] ! F   X 1 5 ) t.r.E.~.$XE.I.r.Q.A.r.I.Q.r.I.Q.s.0.5 ( s / H ; : 6 6 : X o o : u a u u : 3 > r e.e.0.B ",
"o 3 ; X * 8 ] CX].[.[.] 2 X < X 1 . . C D.^.^.G.^.F.U.U.qXU.I.I.r.C 9.I.{.0.B d 5.a._ ; X X & ; r 3 3 u u u u : ; = X + e.a.a.d ",
"=.u X * y..XCXDXAX].aX].O 2 < * . . z $.F.K.K.K.K.G.D.D.!.I.r.t.C C n r.Y.y a.5.O 1 4 3 3 & o 3 Y s u ; = = @ X o : ; 4 4.a.z.>.",
"> w ,.a.d.(.[.AX'.CXXX] D ].! 1 % M D.^.L.L.L.L.H.S.G.D.U.r.q.) n C % 5 V 2.pXNXSX{.d O - 6 u p 3 ; o & : 6 u 6 K :./ ^ k.c.c.0.",
"w X u 3.] ~ W W { .X].p.] |.aX5.C C.^.^.J.J.V.N.B.B.S.C.D.w.9.V 0 y y . V BXSXNXSXSXiXy.i 3 u L 3 : : u p H a u i 3 O 4 b.7X6X2.",
"X @   i c.Q 9 2 D { ] p.(.cX7X}.D.F.@X@XJ.=X/./.N.N.S.C.%.@.9.C Z V n 0 zXKXMXSXNXSXSXSXa.^ d / s i K Y p ; = = - o & 4 {.zX}.0.",
"X @ X s eXY.' W 9 p.d.d.Q d.Z q.E.F.K.J.%X=X%X%X%XN.N.M.C.O.M M >.m $ % e.tXKXSXJXKX7XzXiX1.r + X X ; p 3 = ; : o o o 4 c.iX{.s.",
"X @ X O s.0.1 9 1 y.d.' 1 0.Z I.VX$X+X&X*X*X%X%X/.J.B.M.$.&.O.@.9.V . C r.) }.qXpXiXNXzX{.k.r   - ; 6 : : G T u p H i i a.}.c.s.",
"@ = o   ) )   O X J a.4.a.Q.U.bXVX+X+XJ.*X*X=X*XJ.&XH.B.M.B.&.%.n $ % Q.qX) 9.9.9.Z {.W.>.c.B r 4 - ; i p H H u 6 H i s 4.{.a.a.",
"= o O . a.Y.. . / 3.3.e.P.r.D.-XmX-X-XOX*X=X=X=X*X&XB.H.H.H.M.F.#.% . n Z !.KXyXMX}.V B ( <.d O -   & ,.,.u 6 R H / L ^ 4.Y.2.2.",
"X X . O ) s.. O O Y t y Z D.-XmXGXmXmX&X*X=X=X%X*X&XH.H.H.H.H.K.m y y y 9.BXKXBXSXzXP.( y z.a.4 4 p ,.,.K p P ,.3.3./ ^ 4.c.<.) ",
"& - + $ 5 V O +   :.:.h C E.K.H.+X-XmXOX%X%X*X%XJ.&X&XH.B.H.OXS.z V n e.uXBXMXBXMXzXSX!.$ e.a.4 3 / ,.p o 6 K p 6 6 3 4 5.s.2.>.",
"& O O r d ( + X t a 8.o.D.K.H.&XV.-XGXOXOX%X*X%X&XV.H.H.@XS.S.+.# 0 C tXMXNXBXBXpXBXyXzXz.) a.<.X X ; 6 : : : & & & 3 - 4.a.5.) ",
"4 4 4 r 3.L a U 7.#Xn.#XF.J.&X%XOX:X;XJ.&X&X*X&XOXV.N.S.@X$XM.&.m # q.vXqXyXNXMXMXNXpXzXY.<.z.L - H H p p P K G - ; - - <.a.a.<.",
"4 - - 3 i.3.u.u.l.e.R.$X@XJ./.>XJ.;XmX+X+X&XH.N.N.L.K.M.%.$X$X#Xw.N &.uXqXyXMXnXpXNXpXcXs.) s.3.3 K Y T R ,.T K i ; - - 4.c.{.{.",
"+ + 4 3 L K h a j j R.F.@XOX%X%XV.;X;X@X+.| x # l %.S.M.O.M.C.$X$X%.@.E.qXvXnXMXnXNXNX}.e.<.e.a.:.T : X @ : a I I u > 3 8.a.c.c.",
"<.<.4.<.L s f t h 6.#XF.K.OX%X%X%X:X:X@Xc v z z 0 z M C.C.C.%.^.$XC.N $.~.vXMXBXBXBXnXP.0.0.2.k._.x.7.=.I f a f :.h f a 8.l.l.a.",
"1.<.^ i > r h h 8.6XR.D.H.J.V.%X/.*X+XF.#.f.g.e.e.6.N A %.K.M.$.G.C.c N ~.nXMXBXBXMXrX0.) 2.2.b._.,X,X,X,Xv.j.j.7.:.-.g 7.l.b.l.",
":.^ r t t U U :.b.W.n &.K.J.J.*X/.-XK.#.X.R.5Xb.b.b.f.w.#.%.x x %.$.A N $XMXBXBXMXyX!.) Z >.e.0XJXJXFXxXxXlXlXlX0X8X0Xl.oXoXb.m.",
"a h t h U :.K 1.0X8.y &.F.@X&X&X+X^.C.m 6.k.b.5Xl.c.!.qXE.C.c O.+.A c #.vXBXMXMXMXqXr.Z Z ) 4.v.v.oX,X,X0X8X8XlXxXxXxXlXxXhX0XoX",
"t U f :.:.,.,.,Xu.+ V #.D.@X-XL.S.b # 0 z.k.l.b.b.W.!.uXuX#XS c O.x z w.BXBXMXyXMXU.Z n V :.U h k t t w w t t g f -.7.8.oXoX0X9X",
"g > I x.I ,.x.v.t :.o.X.#XK.+.b # z m >.e.a.a.c.Y.6XeXqXwXyXE.z @.N z uXzXiXtXNXtXz.Z Z ) B K ,.:.t g g g f f f f a t w w t g h ",
"e ;._.x.u.x.,X=.f 8.8.q.f.#.l # # 0 C e.e.a.s.z.P.6XyXyXyXyXQ.C N z 9.uXW.W.W.7XtXr.m m V B U =.f w t a a I K T =.I I I U I h h ",
"7.7.j.,.7.h.h.t f :.l.g.9.z # # 0 y 6.z.e.0.s.r.r.I.~.qXyXpX}.>.C z z.9X_.5X{.{.#X9.m m V V U a g t f I K ,.Y Y ,.Y T Y =.I f g ",
"m.;.I I =.v.=.I f U 8.e.X.z l z 0 0 9.c.e.0.z.I.I.I.I.I.6XzX7X0.n V W.5X5X0X_.c.P.C z m n V :.f t t =.Y Y ,.,.P ,.P K K U I f f ",
"k X e w :._.a U ,.h :.6.X.m x x 0 0 6.P.z.z.}.qXwXwX~.U.!.pXeXe.0 z.5X0X8X_.v.n.R.@.x z 0 V 8.:.h f ,.,.,.u.i.i.,._ Y Y ,.:.=.=.",
"v.g w w n.8.+ a 1.h B >.X.X.A N N m 9.P.Y.Q.qXtXMXBXMXwX}.rXeXP.9.uX5X9XlX0Xb.n.f.#.N A N C >.:.h g U U I i.i.i.i.,.,.,.,.I I I ",
"HX9X} :.5Xj + d h d y V X.#.O.S @.M #.I.Q.!.6XeXnXMXBXnXqXqXqXQ.Q.tX5X9X8X8Xl.g.w.O.c O.$...V V h t I Y I ,._ ,.,.,.7.,.=.I =.,.",
"l.HX7.n.l.+ t t $ r y V X.@.S O.A x N t.Q.!.}.eXNXnXnXnXwX!.Q.Q.yXtXiXiXv.,X8.z.f.@.x A #.@.X.6.l.7.x.v.x.x.u.u.,.,.u.u.7.u.v.,X",
"u.=.x.v.h + w h t j j j m #.#.N A $.c M Q.!.T.rXyXnXvXvXqXI.!.W.6XtXxX5X5XW.e.f.I.N M v N X.w.6.8.8.h.h.u.7.7.7.v.u.,.7.,.=.h.,X",
"v.h.b.h.I h f a + t j j q m ..$.A S x N I.!.!.wXyXvXvXwX X!.6X6XW.5X7XW.c.k.0.P.t.m N N ..N ..o.} f g g g g f -.h.u.7.7.7.7.7.h.",
"x.v.0Xb.:.:.:.=.-.t t V 6.#.X.O.A A x z t.!.qXqXyXvXvX X!.qXeXtXtX9X7X{.c.a.0.P.#.m M N @.m z X.} g g g g g f -.f I f g f f g w ",
"-.U l.b.n.l.7.=.=.-.:.8.g.X.X.#.+.+.A x C T.wXqXyXyXvX~.Q.rXuXtXiX{.c.c.c.a.e.z.C C M N ..m m f.n.j.j.j.x.j.j.j.h.h.h.m.h.h.m.7.",
"l.h r s 1.b.v.l.7.7.8.8.6.X.X.@.+.+.S c N D.qXqXrXrXvX~.~.yXrXtXtXb.4.e.a.e.e.r.N M N z m 0 z R.9X8XfXdXfX8X8X8XfX1X1X8X8X<X<X8X",
"c.k.8.r + h 8.b.v.x.8.:.6.6.X.N A S S A N t.Q.qXqXwXyXqXwXvXyXqXeXW.a.e.2.2.s.r.m N N z z 0 0 g.lXdXfXfXfXfXfXfX1X<X<X1X<XoXoX<X",
"1.b.9Xc.h t + a 7.x._.b.e.6.6.q.S A A A S #.r.!.!.wXwXrXyXyXwXT.s.a.2.4.2.e.Y.t.n m z N m m 0 6.hXfX1X1X3X1X3X3X1X3XfX1X<X2X2X2X",
"iX5X5XW.b.8.a t t =.l.5X5XW.e.9.+.A A S #.S t.T.!.wXqXyXyXwX XZ.s.z.a.a.s.P.P.n z z z m m X.n o.hXfX3XsXsXfXfXfX3XsXsX<X<X1X3X<X",
"a.iXNX9XW.5Xb.1.:.=.,.U 8.W.7XI.$.S +.+.A l n I.!.qXqXwXwXU.Z.U.}.c.c.Y.c.P.r.m M @.@.M M M m j hXfXsXdXjXdXdXsXgXdXgXsXfX3X<X<X",
"r ^ k.5X7X{.b.c.,.u.I > r :.e.f.$.+.+.A x l l #.U.!.!.~.~.I.Z.T.}.W.P.P.Y.f.9.N N A S M M ..m q hXgXgXjXjXjXjXjXgXgXgXsXsX3X3X4X",
"i L h d ) c.5X5Xx.u.7.u.^ 2.>.n w.$.+.x x x l N Z.U.Q.T.I.U.T.wX}.6XY.z.P.q.m N N A A M ....N q hXsXsXgXjXjXgXgXsXsXdXdXgXgXsXsX",
"/ h h ^ ^ ^ 1.k.5Xx.u.l.1.8.>.n #.%.$.x x A A +.w.D.I.Z.Z.U. XyX X6XQ.I.f.X.m N c A A A O.@.M q 8XfXgXjXjXjXgXsXdXsXdXdXgXjXgXsX",
"a s L ( ^ d d h u._.x.3.b.2.h e.N #.%.b b N.+.M.$.C.I.A.A.T. XwXqXQ.Y.I.9.N N c b O.b A O.@...q hXdXjXdXdXjXkXjXkXjXjXjXkXkXkXjX",
"i L s 4 4 ( ^ 4 i 3.l.a.5Xe.B V n #.%.+.+.N.+.+.+.w.I.Q.!.wXrXwX}.I.I.r.N m O.c | | | | O.#...q hXdXdXfXfXdXjXjXsXfXfXdXjXkXkXkX",
"K u 4 L ( d r d s 3 U :.^ <.2.y n M %.$.M.N. .N.$.$.r.Q. XrXyX XT.I.r.C m N ..c | | | b O.#...q 0XdXkXdXdXjXkXjXFXkXkXkXkXkXkXkX",
"H L L d r r d d a s h U > h >.>.V M #.$.M.N.N.M.M.A S r.I.}.}.A.I.Q.q.n m M c O.b b b b O.#...q hXkXHXHXHXFXFXkX1X2XoXj.m.7.;.} "
};
