/* XPM */
static char *_23d344a674a42ac93ae255714d53910g9Ei4ayGht3KuiEc[] = {
/* columns rows colors chars-per-pixel */
"64 64 253 2 ",
"   c #7B3915",
".  c #753000",
"X  c #746311",
"o  c #8A370C",
"O  c #9A4605",
"+  c #9C5103",
"@  c #8D4A14",
"#  c #AA4904",
"$  c #B54603",
"%  c #A25503",
"&  c #B75904",
"*  c #A7481A",
"=  c #927413",
"-  c #B67703",
";  c #AD6915",
":  c #8A4927",
">  c #975329",
",  c #965431",
"<  c #B25D23",
"1  c #8A7429",
"2  c #937A2B",
"3  c #8B6C36",
"4  c #906A30",
"5  c #B06F30",
"6  c #C94B02",
"7  c #CF5A05",
"8  c #CA6A02",
"9  c #D76A03",
"0  c #C87300",
"q  c #C97319",
"w  c #E57D02",
"e  c #92754F",
"r  c #B17651",
"t  c #BB9A00",
"y  c #B08504",
"u  c #BDA601",
"i  c #9E8737",
"p  c #9F852D",
"a  c #A99335",
"s  c #B98935",
"d  c #998A0D",
"f  c #D98310",
"g  c #D29005",
"h  c #F59C15",
"j  c #EA920B",
"k  c #CBA904",
"l  c #D4AB00",
"z  c #DCAF00",
"x  c #DAB308",
"c  c #D7B916",
"v  c #CAB504",
"b  c #E5AC02",
"n  c #F4AA07",
"m  c #E2B401",
"M  c #E3BB01",
"N  c #EBBB00",
"B  c #EAB602",
"V  c #F5B500",
"C  c #F3BB02",
"Z  c #FEBD01",
"A  c #F9B50B",
"S  c #F6A719",
"D  c #E4BC17",
"F  c #FEBD1B",
"G  c #FCB913",
"H  c #EDA914",
"J  c #EC9227",
"K  c #F7A922",
"L  c #F6B631",
"P  c #D1A222",
"I  c #D8C414",
"U  c #E5C400",
"Y  c #EEC300",
"T  c #ECC808",
"R  c #F4C100",
"E  c #FCC401",
"W  c #F3CB01",
"Q  c #FDCC01",
"!  c #FDCC0A",
"~  c #F6C70C",
"^  c #ECD702",
"/  c #FED301",
"(  c #F4DD00",
")  c #FBDB01",
"_  c #F5D40A",
"`  c #FFDB0B",
"'  c #F7D408",
"]  c #EAC61A",
"[  c #F3C412",
"{  c #FEC415",
"}  c #F3C51B",
"|  c #FEC51A",
" . c #FDCC1C",
".. c #F8CB17",
"X. c #FED213",
"o. c #FEDC14",
"O. c #FCD31C",
"+. c #FFDC1B",
"@. c #F4DD1F",
"#. c #EAD719",
"$. c #FEE402",
"%. c #FEEB00",
"&. c #FEE40D",
"*. c #FEEC0A",
"=. c #F6E100",
"-. c #FDF307",
";. c #FEEB13",
":. c #FEE41C",
">. c #FEEB1A",
",. c #FDE315",
"<. c #FFF31A",
"1. c #DACE2A",
"2. c #EACA29",
"3. c #FFC422",
"4. c #FDCC2B",
"5. c #F8CA25",
"6. c #EBD625",
"7. c #FFD922",
"8. c #FBD827",
"9. c #F4CE31",
"0. c #FEDD33",
"q. c #FAD738",
"w. c #E9D332",
"e. c #DEE035",
"r. c #FFE325",
"t. c #FFEB25",
"y. c #FFE52C",
"u. c #FFEC2B",
"i. c #FFF22E",
"p. c #FEF825",
"a. c #FFEC33",
"s. c #FFE33A",
"d. c #FFEC3D",
"f. c #F9E334",
"g. c #FFF233",
"h. c #FFF937",
"j. c #AA9253",
"k. c #B3916B",
"l. c #BDA669",
"z. c #CAB04A",
"x. c #CEB074",
"c. c #CA8C67",
"v. c #D9C356",
"b. c #F9D948",
"n. c #ECD552",
"m. c #FFE645",
"M. c #FEEB44",
"N. c #FEE449",
"B. c #FFEB4C",
"V. c #F0E04C",
"C. c #FFF346",
"Z. c #FFF24B",
"A. c #FFFB4B",
"S. c #FFFA43",
"D. c #FFEC52",
"F. c #FFE756",
"G. c #FFF453",
"H. c #FFFB53",
"J. c #FFFE5C",
"K. c #FFF25D",
"L. c #EBD468",
"P. c #FEE768",
"I. c #FFF26A",
"U. c #FFF766",
"Y. c #FBE676",
"T. c #FFF976",
"R. c #DA998F",
"E. c #D6B99B",
"W. c #CFAE8A",
"Q. c #E2A898",
"!. c #F0B091",
"~. c #D8BFA1",
"^. c #ECBBA6",
"/. c #F2BAA7",
"(. c #D6C384",
"). c #E2CA84",
"_. c #E6CC96",
"`. c #FFFD86",
"'. c #FAE781",
"]. c #EDCABA",
"[. c #ECD6B7",
"{. c #F7D0B4",
"}. c #FEF0B4",
"|. c #FECEC1",
" X c #F9D9C6",
".X c #FCDBD5",
"XX c #ECD8CC",
"oX c #FFE6CB",
"OX c #FFF9C6",
"+X c #ECE7DC",
"@X c #FEE1D4",
"#X c #F4E5DC",
"$X c #FCE5DB",
"%X c #FFECDD",
"&X c #F7EAD7",
"*X c #FEF2DD",
"=X c #FFF6D5",
"-X c #EAF4D9",
";X c #E6DAE7",
":X c #DEEDEA",
">X c #E6E6E6",
",X c #E6ECE5",
"<X c #ECEAE6",
"1X c #E5EDEC",
"2X c #ECECEC",
"3X c #ECE5E8",
"4X c #FCE4E3",
"5X c #F3EBE4",
"6X c #FDEDE4",
"7X c #FBE5E9",
"8X c #F3EDEB",
"9X c #FCEDEB",
"0X c #F1E5E6",
"qX c #E5F2EE",
"wX c #ECF2EC",
"eX c #E7F4E6",
"rX c #FDF3E4",
"tX c #FEFDE4",
"yX c #F3F2ED",
"uX c #FDF3EC",
"iX c #FFFAED",
"pX c #F5F7EC",
"aX c #EDEDF1",
"sX c #E9E8F3",
"dX c #F4EDF4",
"fX c #FBEEF2",
"gX c #FBEEFB",
"hX c #F6E7F9",
"jX c #EDF3F4",
"kX c #EDFAF5",
"lX c #ECF8F8",
"zX c #F3F3F4",
"xX c #FCF4F4",
"cX c #F4FBF4",
"vX c #FAF9F6",
"bX c #FDFAF4",
"nX c #F4F5F9",
"mX c #FCF6FC",
"MX c #F6FAFE",
"NX c #F4FDFC",
"BX c #F8F8F8",
"VX c #F9F9F9",
"CX c #FAFAFA",
"ZX c #FFFFFB",
"AX c #FEFDF9",
"SX c #FAF9FE",
"DX c #FAFEFF",
"FX c #FDFDFD",
"GX c #FFFFFD",
"HX c white",
"JX c #FEFEFE",
"KX c #FEFDFF",
"LX c #FDFDFD",
/* pixels */
"zXzX2XzXBXHXHXHXzXzX2X2XzXHXHXHXLXnXaX2XzXvXCXCXbXxXyX5X5XuXbXCXCXbXuX5X5X8XxXbXCXCXCXzXaXaXnXHXHXHXHXzX2X2XzXBXHXHXHXBXzX2XzXzX",
"zX2X2XzXBXHXHXHXzX2X2X2XzXHXHXHXSXzX2X2XyXvXCXCXCXxXyX<X5XuXbXCXCXbXuX5X5X8XxXCXCXCXvXyX2X2XnXSXHXHXHXzX2X2XzXzXHXHXHXBXzX2X2XzX",
"2X2X2XzXBXHXHXHXzX2X2X2XzXHXHXHXSXzX2X2XyXvXHXCXCXvX8X<X<XyXbXCXCXbXyX<X<XyXBXCXCXHXvXyX2X2XzXSXHXHXHXzXzX2XzXzXHXHXHXBXzX2X2X2X",
"zXzXzXzXBXBXHXHXzXzXzXzXzXBXHXHXBXzXzXzXzXzXBXCXvXzXzXyXzXzXBXBXBXzXzXzXyXzXzXvXCXCXvXzXzXzXzXBXBXBXBXzXzXzXzXzXHXHXBXBXzXzXzXzX",
"BXBXBXBXzXzXzXzXzXBXBXBXzXzXzXzXzXvXBXCXBXzXzXjXzXzXnXBXBXnXzXjXjXzXnXBXBXnXzXzXzXzXzXBXCXBXvXzXzXzXzXzXBXBXBXBXzXzXzXzXBXBXBXBX",
"HXHXHXBXzXzX2X2XBXHXHXHXBXzX2X2XzXvXHXHXHXzX2X2XaXjXMXHXHXMXjX1X1XjXMXHXHXMXzXsX2X2XzXHXHXHXvXzX2X2XzXzXHXHXHXBX2X2XzXzXBXHXHXHX",
"HXHXHXHXzX2X2X2XzXHXHXHXBXzX2X2XyXvXCXHXHXzXaX2XaXjXMXDXDXNXjX1X1XjXNXDXDXMXlXaX2XaXzXHXHXCXvXyX<X2XzXBXHXHXHXBX2X2X2XzXHXHXHXHX",
"HXHXHXHXzX2X2X2XzXBXHXHXBXzX2X2XyXvXCXHXBXzXjXjXaXnXMXDXDXNXjX1X1XjXNXDXDXMXnXaXaXjXzXBXHXCXvXyX2X2XzXBXHXHXBXzX2X2X2XzXHXHXHXHX",
"BXzXzXzXzXBXzXzXzXzXzXzXzXzXzXzXzXzXzXzXzXnXnXSXMXjXsXaXSXDXzX1XqXcXDXDXzXaXnXSXMXnXnXzXzXzXzXzXzXzXzXzXzXzXzXzXzXzXBXzXzXzXzXBX",
"2X2X2XzXBXHXHXHXzXzX2X2XzXzXBXCXcXyXwX2XdXnXLXHXHXHXnX2X>X2XAXCXCXvX2X>X2XMXHXHXHXSXnXzX2XwXyXvXBXBXzXzX2X2XzXzXBXHXHXBXzX2X2XzX",
">X>X2XzXBXHXHXHXzX2X2X2XzXBXHXHXvXyX<X>XdXSXHXHXMXnXdX2X8XpXbXbXbXbXyX<X2XdXzXnXHXHXSX2X>X<XyXCXHXHXBXzX2X2X2XzXHXHXHXBXzX2X2X2X",
"2X2X2XzXBXHXHXHXzX2X2X2XzXHXHXHXvXyX<X2XzXLXHXHXHXLX8X0X5XrX*X&X&X*XrX5X5X8XmXHXHXHXSXzX<X<XzXCXHXHXBXzX2X2XzXzXHXHXHXBXzX2X2X2X",
"zXzXzXzXzXBXBXBXzXzXzXzXBXBXBXzXcXyXyXzXBXLXmXmXLXxX9X5XrXtXtXtXtXtXrX%X5X9XxXmXmXmXSXnXzXyXcXAXzXzXBXBXzXzXzXzXBXBXzXzXzXzXzXzX",
"HXHXHXBXzXzXzXzXzXzXBXHXBXzXzX2XzXcXvXHXHXmXzXfX3XxXbXiXrXoXoX=X=XoXoX*XiXbXxX3XdXdXmXSXHXAXcXcX1XzXzXBXHXBXBXzX2X2XzXzXBXHXHXHX",
"HXHXHXHXzX2X2X2XzXBXHXHXBXzX2X2XwXcXCXHXSXnXdXfXfXxXuX%X[.~.W.W.W.W.E.[.%XbXxXxXdXdXzXLXHXCXcXwX2X2XzXBXHXHXHXzX2X2X2XzXHXHXHXHX",
"HXHXHXHXzX2X2XzXzXHXHXHXzX2XaXjXeXcXHXHXmXfX6X*X[.W.j.j.l.(.).).).).x.l.k.k.E. X*X%XrXbXHXHXMXaXzX2X2XzXHXHXHXzXaX2X2XzXHXHXHXHX",
"BXHXHXBXzX8X8XzXBXDXHXHXDXnXjX1X-XiXsXmXmX9XOXj.d c V.U.T.T.I.I.T.T.T.T.Y.L.z.p x.OX[.tXuXmXLXsXsXaXlXMXHXHXLXSXaXdXzXzXBXHXHXHX",
"2X2XzXzXvXBXHXHXjX2XzXzXMXDXDXDXtX+XLXmX7X[.= 1.d.h.h.h.d.C.C.C.f.M.Z.G.U.T.I.P.z.= }.}.iXhXhXmXDXDXMXMXnXzXdXdXHXHXHXBXzXzXaXaX",
"2X2X2XzXBXHXHXHXzXzX2X2XzXDXHXHXCXXXuX XE.p n.q.u.t.y.f.d.Z.H.A.A.A.Z.m.N.D.K.I.n.v.a (.=X9XsXLXHXDXMXnXaXaXzXSXHXHXHXSXzXaXaXzX",
"zX2X2XzXBXHXHXCXBXzX2X2XzXSXHXHXmX4XoX).= F.d.h.' o.a.A.H.H.Z.d.C.A.H.H.G.D.D.F.T.T.L.2 (.*X#XHXHXHXSXzX2XaXnXHXmXHXHXLXzXaXdXzX",
"2X2X2XzXBXHXHXHXaX2X2X2XzXHXHXLXhXfX_.= d.>.*.$.>.t.d.d.q.D v k u v I 0.C.G.G.G.N.U.P.`.1 _.=XtXCXHXHXBXdX2XaXzXHXHXHXSXzXaX2XaX",
"vXBXzXzXzXBXzXzXzXzXzXvXvXxXxXfXgX@X+ q.p.) %.$.;.o.[ x k k k c v u t u k ] s.H.M.m.F.T.'.X }.OXrXzXmXBXSXBXnXzXzXzXzXnXnXmXmXmX",
"CXCXHXBXzX2X2X2XSXHXHXHXxX8X5X#XuX4 L y.$.$.-.-.Q N m m ] 9.m.J.H.d.2.c k l ] 0.H.M.N.b.`.v.2 OX&X3X2XBXHXHXHXAX2X1X2XzXLXHXHXHX",
"bXCXHXBXzXaXaXzXzXBXHXCXxX8XrXrXx.s q.h.) $.-.) m z M 7.a.d.B.B.M.B.H.G.0.D l z 8.J.M.N.I.L.a (.*X8X8XBXHXHXBXzXzX2X2XjXHXHXHXmX",
"bXCXHXBXzXaXjXjXzXHXHXbXAXXXuXoX= b.y.) -.%./ m C [ O.r.g.S.G.D.J.G.m.m.B.s.} l l A.M.m.F.T.z.i *X7X0XCXxXvXHX2XjX2X2XzXLXHXHXLX",
"xXxXbXBXzXzXnXnXnXzXvXyXbX#XiX_.d 8.;.) *.$.W m [ } O.y.g.a.f.w.2.q.D.U.K.b.4.} x 8.M.B.F.I.P.p  X9X9XxXuXyXCXwXzXzXzXzXMXLXmXmX",
"yXyXyXzXBXDXDXDXMX>X2X5XuXuXiXl.u &.$.$.;.' [ D } } O.t.i.u.6.c c 9.D.K.D.q.4.5.[ l s.G.D.F.`.a E.xXuX5XyX8XzXwXAXDXDXBXnXdXdXfX",
"5X5X<XzXSXHXDXDXMX>X<X+X6XiXiXi I %.=.&.:.T [ } } ..O.r.g.a.8.] 6.2.2.2.9.4.5.} ..l 8.H.B.F.`.z.k.bXbX#X5X5X2XyXHXDXHXSXzXaXdXdX",
"5X5X2XzXSXHXDXDXnX1XxX5X6XiXrX2 #.%.( ;.+.N R ~ ~ ~ ~ O.y.g.g.a.f.2.c x D 5.5.....T U C.m.D.I.L.e xXbX#XuXyX2XcXDXDXHXSXzXaXdXhX",
"rXuXyXzXVXMXMXMXjXzXCX6XrXrX@X2 @.$.) :.+.N E E E C C [ O.y.i.h.a.d.s.8.5.} } O.~ O.M d.M.G.F.Y.e 6XbX$XbXpXyXcXcXNXMXVXnXnXgXgX",
"bXbXbXvXnXjXlXlXjXHXCXrXiX*X X2 8.$.) :.X.C Q E E Z C A G [ / ` i.S.A.S.y.O.[ ..~ _ T a.d.B.K.Y.e .XuX6XbXbXvXcXqXqXjXzXmXLXLXmX",
"CXCXHXCXjX1X1XjXjXHXCX6XiX%X].2 6.( ) :.X.Z Q E E E R B b z m x _ :.u.i.u.+.~ Y ~ B 7.a.d.f.J.n.3 XX6XuXbXAXAXzX1X1X1XjXSXHXHXLX",
"LXLXHXLXjX1X1XqX1XCXAXbXbX@X$X1 6.^ >.X. .{ n Q Q W ^ $.$.) Q R l U &.<.<.&.' ~ { G 3.0.a.h.p.e.1 ].4X6XbXAXCXzX1X1X1XjXDXHXHXHX",
"mXmXLXmXnXjXjXwXwXCXAXuXuX4X4X3 1.^ / ! 7.{ V ! R U ^ %.-.$.Q Y N W $.;.<.&.W N { A 5.f.+.;.-.1.1  XrX%XbXbXvXcXjXjXjXjXVXCXCXCX",
"gXgXdXnXMXNXNXcXcXpXiXrX6XuXxX3 c ` W Q r.! C E R N W &.p.<.` ^ _ o.:.>.:.! R B C B +.u._ _ &.I 1 @XiX#XuX8X2XVXNXMXMXVXzXzXzXzX",
"hXdXdXzXSXHXDXDXAX<XyX5X4XbXxXe y 7.! Q ,.W W Y E V E X.y.u.t.t.:.u.g.r.{ V V E B M ,.>.^ :.+.t 4 %XiX#XrX<X<XcXDXDXDXDXzX2X8X8X",
"dXaXaXzXSXHXDXDXvX>XyX+X6XbXbXc.% 3.7.! ) ^ ) W R V A G | O.y.i.t.t.7.{ A n V R Y ( *.$.) u.| % j.uXiX#XrX<X<XcXDXDXHXSXzX8X8X8X",
"dXdXdXnXBXDXDXDXcX<XxX<XxXbXbX^.O h 4.X.^ ( %.) R V n n b B T :.>.^ z b n G V B ) %.-.=.o.8.h O W.uXiX6XpX2XzXzXAXDXDXBXzXfX9XfX",
"mXmXmXmXzXzXzXzXzXyXCX8XCX9X9XoX< 8 K | W ) ) ) ! G A n b b M U ^ U z b A G E R ) %.%.$.+.G 0 % {.rXrXbXiXyXCXwXcXzXzXzXmXmXmXmX",
"mXLXHXSXzXaXwXjXzXCXHXyXCX0X0XuXc.# J 4.! ) W / :. .F F G B m z l M R C C C ! ` ) $.) ) 0.g & 5 *X5X<XAXvXvXCX1XyX2X2XzXCXLXLXmX",
"mXHXHXLXzX2XaXzXwXBXHXHXBX8X8X9X.X@ + L G E ,.N ! X. ...R C V V E C N R X.o.` / Q $./ O.S + < !.rX8X2XzXCXCXvXyXyX2X2XzXCXLXLXmX",
"HXHXHXLXzX2X2X2XBXHXHXHXBX8X3X7X.XR.@ % S F Z +.~ ....X.! Q Q / E E E Q _ o.o.` ` ` 7.j - ; , rX#X3X2XzXCXCXCXvX<X<X2XzXCXHXLXLX",
"mXmXmXnXnXnXnXnXzXnXBXBXBXBXnXnXfX6Xr . q K j F { ....~ E E E E Q / ) / W T ~ ! X.A g f + 5 %X.XfXzXzXBXBXvXcXzXyXzXBXBXBXmXmXmX",
"2X2X2XzXSXHXHXHXzX2X2XzXmXHXHXHXmXmX].r O & f S F F | { ! E Z Z Z Z E ! X.O.5.4.S 0 J ; @ E.xXfXHXHXHXnXjX2XwXyXCXCXCXCXzX2XaXdX",
"zXaX2XzXLXHXHXLXHXnX2X2XzXSXHXHXSXxXbX{.> o q J J h S F 3.| | | { F F | 3.F S h f q + > Q.uX7XHXHXHXSXzX2X<XzXCXvXAXCXvXzXaXjXnX",
"aX2X2XzXLXHXHXHXMXzX2XaXnXDXHXDXDXnX9X$X^.r O # 9 9 w j h S H H L K S h j j 8 & # <   Q.uX7XfXgXHXHXSXzX2X2XyXvXAXAXCXvXzXjXaXjX",
"2XaXzXzXmXLXHXHXaXaXjXnXMXDXHXDXMXzX>X9XxX|.r o 6 6 6 7 8 0 - - - - 0 8 9 9 7 7 O , oXuX4X0X;XLXLXLXLXmXzXyXyXyXAXAXvXcXzXjXjX1X",
"HXHXSXBXnXzXdXdXnXSXHXHXSXnXaX1X1XzXHXLX7XxX$X!.* $ $ $ & ; ; ; 5 5 ; & & $ # * R.*XuX7XmXLXLX;XsXaXnXSXHXHXAXvXyXwX2XjXAXDXDXMX",
"HXHXHXHXzX2X2XzXzXHXHXHXzX2XaXzXdXmXHXHXCX9X4X%XoX/.k., o   : : : :     : r ^.oX%X6X9XmXLXLXmXhXdXaX2XzXHXHXCXzX2X2X2XzXDXHXHXHX",
"HXHXHXHXzX2X2X2XzXBXHXHXBXzX2XaXdXmXHXHXLXzXyX5X6XrX6X@X|./.Q.R.R.Q./.|.@X%X6X6X5XyXyXLXHXLXmXfX2X2XzXBXHXHXHXzX2X2X2XzXHXHXHXHX",
"HXHXHXBXzXzXzXzXzXzXBXHXBXzXzX2XnXmXSXDXNXcXyXwX+XrXiXiXuX%X.X.X.X@X4XuXiXiXrX+XwXyXcXAXHXLXLXmX2XzXzXBXHXBXBXzX2X2XzXzXBXHXHXHX",
"zXzXzXzXzXBXBXBXzXzXzXzXBXBXBXzXDXnXjXjXkXNXcXcXcXpX5X#X$X4XuXuXuXuX4X$X#XrXiXcXkXcXcXcXjXjXmXHXzXzXBXBXzXzXzXzXBXBXzXzXzXvXzXzX",
"2X2X2XzXBXHXHXHXzX2X2X2XzXHXHXHXDXjX1X:XqXNXMXNXNXcXwX<X5XuXxXbXbXbXuX5X5XyXcXNXNXMXNXjX1X1XzXHXHXHXBXzX2X2XzXzXHXHXHXBXzX2X2X2X",
">X>X2XzXBXHXHXHXzX2X2X2XzXBXHXHXDXjX1X:XqXkXNXNXNXkX,X>X8XuXxXuXxXxXzXwX>X,XkXNXNXMXkXqX1X1XzXDXHXHXBXzX2X2X2XzXHXHXHXBXzX2X2X2X",
"2X2X2XzXBXHXHXHXzXzX2X2XzXzXBXDXcXjXqXqXjXkXNXNXMXNXjXaXdXBXLXHXHXHXzXjXqXkXNXNXNXNXkXjXqXjXzXBXBXBXzXzX2X2XzXzXBXHXBXBXzX2X2XzX",
"BXzXzXzXzXBXzXzXzXzXzXzXzXzXzXzXzXzXzXcXkXkXkXlXqXjXNXMXnXnXnXSXSXnXjXjXNXNXlXjXkXjXjXzXzXzXzXzXzXzXzXzXzXzXzXzXzXzXzXzXzXzXzXBX",
"HXHXHXHXzX2X2X2XzXBXHXHXzXzX2X8XyXxXHXHXBXzXjXjXjXzXSXHXHXmXdXaXsXaXMXDXDXMXjXjXjXjXzXBXHXHXxX9X2X2XzXzXHXHXHXBX2X2X2XzXHXHXHXHX",
"HXHXHXHXzX2X2X2XzXHXHXHXBXzX2X2XzXxXHXHXLXnX2X2XaXzXLXHXHXmXdXsXsXaXmXHXHXSXzXaX2X2XnXLXHXLXxXfX2X2XzXBXHXHXHXzX2X2X2XzXHXHXHXHX",
"HXHXHXBXzXzX2X2XzXBXHXHXBXzX2X2XzXxXHXHXLXnX8X3X2XdXLXHXHXmXdX2XsXdXmXHXHXSXzX2X3X8XnXLXLXLXxXfX3X2XzXBXHXHXHXzX2X2XzXzXBXHXHXHX",
"BXBXBXBXzXzXzXzXzXzXBXBXBXzXzXzXzXxXmXCXmXxXzXfXfXzXmXmXCXmXzXdXdXzXnXBXBXmXzXzXfXfXxXmXmXmXxXxXdXzXzXBXBXBXBXzXzXzXzXzXBXBXBXBX",
"zXzXzXzXBXBXHXHXzXzXzXzXzXBXHXHXmXzXzXzXzXBXCXCXmXzXzXzXyXzXzXBXNXcXzXyXzXzXzXvXLXCXBXnXzXzXnXxXHXBXBXzXzXzXzXzXHXHXBXBXzXzXzXzX",
"2X2X2XzXBXHXHXHXzXzX2X2XzXBXHXHXBXzX2X1XjXvXHXHXHXvXwX<X<XyXcXAXAXcXwX,X,XwXcXHXHXHXBXzX2X2XzXBXHXHXBXzX2X2XzXzXHXHXHXBXzX2X2X2X",
"zX2X2XzXBXHXHXHXzX2X2X2XzXHXHXHXNXkXqX1XwXcXDXCXAXcXwX,X,XwXcXAXNXcXwXeX,XeXcXAXCXCXcXwX1X2XzXAXHXHXHXzX2X2XzXzXHXHXHXBXzX2X2XzX",
"zXzX2XzXBXHXHXHXzX2X2XzXzXHXHXHXMXkXqXqXjXNXNXNXcXcXeXeXeXwXcXcXcXkXwXeXeXeXcXcXAXAXNXjXqXqXkXMXHXHXHXzX2X2XzXzXHXHXHXBXzX2XzXzX"
};
