/* XPM */
static char *cec9ced9a5db4ff3e9ea9921a144b9e8MHh2RHN1JHcTeWMD[] = {
/* columns rows colors chars-per-pixel */
"64 64 187 2 ",
"   c #6B1500",
".  c #6C1B00",
"X  c #721B00",
"o  c #7B1F00",
"O  c #6F2000",
"+  c #762202",
"@  c #7C2301",
"#  c #762C01",
"$  c #7D2B02",
"%  c #772609",
"&  c #7B270B",
"*  c #77280A",
"=  c #7B2C0B",
"-  c #773006",
";  c #7C3106",
":  c #7B3C06",
">  c #76350D",
",  c #7D360E",
"<  c #7C3E0B",
"1  c #733510",
"2  c #753B16",
"3  c #7C3B14",
"4  c #842501",
"5  c #892702",
"6  c #842B01",
"7  c #8B2D01",
"8  c #852D08",
"9  c #912700",
"0  c #922D01",
"q  c #992F01",
"w  c #853201",
"e  c #8C3301",
"r  c #8D3A01",
"t  c #85330A",
"y  c #8C350A",
"u  c #863E0A",
"i  c #8D3A0A",
"p  c #943401",
"a  c #9A3502",
"s  c #943A02",
"d  c #9B3B03",
"f  c #943409",
"g  c #98350B",
"h  c #933C0A",
"j  c #9C3C09",
"k  c #8E3511",
"l  c #893E14",
"z  c #933D10",
"x  c #A13601",
"c  c #A33C03",
"v  c #AA3D01",
"b  c #A13608",
"n  c #A23C0A",
"m  c #A93F0D",
"M  c #B13F00",
"N  c #87440F",
"B  c #8B410C",
"V  c #954203",
"C  c #9C4203",
"Z  c #9D4906",
"A  c #96420A",
"S  c #9B430A",
"D  c #9E4A09",
"F  c #9B4B0C",
"G  c #994B0D",
"H  c #9D490B",
"J  c #864314",
"K  c #944011",
"L  c #974410",
"P  c #934312",
"I  c #9B4610",
"U  c #9A4617",
"Y  c #9C4512",
"T  c #904A17",
"R  c #9E4910",
"E  c #9D4A14",
"W  c #974B18",
"Q  c #A14500",
"!  c #A24500",
"~  c #A14600",
"^  c #A24701",
"/  c #A34600",
"(  c #A14502",
")  c #A34704",
"_  c #A34304",
"`  c #AB4304",
"'  c #A34802",
"]  c #A54903",
"[  c #A04904",
"{  c #A64905",
"}  c #A84D07",
"|  c #AB4A05",
" . c #A14708",
".. c #A0470B",
"X. c #A0470D",
"o. c #A4470C",
"O. c #A3430B",
"+. c #AD440A",
"@. c #A04808",
"#. c #A34A08",
"$. c #A1490A",
"%. c #A3490B",
"&. c #A24809",
"*. c #A74B08",
"=. c #A5490A",
"-. c #A74B0A",
";. c #A44B09",
":. c #A54C08",
">. c #A54C0A",
",. c #A64D0B",
"<. c #A34B0C",
"1. c #A1480E",
"2. c #A34A0E",
"3. c #A64B0E",
"4. c #A64C0D",
"5. c #A54D0E",
"6. c #A64C0E",
"7. c #A44F0F",
"8. c #A54A0B",
"9. c #AA4D08",
"0. c #A94E08",
"q. c #A84C0B",
"w. c #AA4E0B",
"e. c #A84C09",
"r. c #A94D0C",
"t. c #A84F0D",
"y. c #AA4E0D",
"u. c #A84E0F",
"i. c #AB4B0B",
"p. c #B24505",
"a. c #B94707",
"s. c #B24A06",
"d. c #BA4906",
"f. c #B3450A",
"g. c #B34B0C",
"h. c #B84809",
"j. c #A4500A",
"k. c #AA520F",
"l. c #AC500D",
"z. c #AD510E",
"x. c #AE500A",
"c. c #A44512",
"v. c #AC4611",
"b. c #A04B12",
"n. c #A54C10",
"m. c #A04A17",
"M. c #A54F16",
"N. c #A14C14",
"B. c #A94F10",
"V. c #AD4C12",
"C. c #A44F18",
"Z. c #B44C11",
"A. c #A55017",
"S. c #AB5112",
"D. c #AA5310",
"F. c #AD5311",
"G. c #AE5513",
"H. c #AD5314",
"J. c #AD5219",
"K. c #934E27",
"L. c #9D4F21",
"P. c #A1582F",
"I. c #986432",
"U. c #9E6933",
"Y. c #A16334",
"T. c #A86231",
"R. c #A0673C",
"E. c #AC673D",
"W. c #A56C3B",
"Q. c #AD6E39",
"!. c #B46C39",
"~. c #C16F3F",
"^. c #AE6E42",
"/. c #AA7543",
"(. c #AB7849",
"). c #B97246",
"_. c #B1764E",
"`. c #B97C49",
"'. c #AD7A53",
"]. c #B67652",
"[. c #B27C50",
"{. c #BA7951",
"}. c #B6825B",
"|. c #BA825F",
" X c #BB8563",
".X c #C18058",
"XX c #C58964",
/* pixels */
"r r r r V s r h h A s s C C d d d C C d C C C / ' C / / C / / / / / / ] ] ] / _ C C C C C C C C p A r r V r i i y r r r r h h @ ",
"h A V V V V A E I R Z [ :.:.o.3.=.y.y.0.y.0.0.l.l.=.l.0.0.l.0.l.} 0.0.0.0.l.y.=.....#.#.1.#.D D S b.V V V r i i r p s V s A U 6 ",
"h H Z V C Z A A E C.7.j.k.D.M.J.3.B.B.y.D.k.4.D.4.#.y.=.=.y.:.y.y.k.F.y.F.G.H.4.4.4.4.4.n.n.1.1.b.A.F F G V h h h A D D V V z $ ",
"h S s V Z D r $ + $ 6 6 w 6 6 6 6 6 6 6 w 6 6 6 6 6 6 6 6 w 6 6 6 6 6 6 w 6 6 6 6 6 6 6 6 6 6 @ @ 6 $ $ $ + + + 4 r C #.V s z 6 ",
"p A s V Z Z r X @ 6 w r r w 6 6 p r w w r w w p p p s r p s r p p 6 6 r s 6 6 w r r e r r r e w 6 r w r r w w w + e C #.s s h $ ",
"p ..V V C V s $ 6 r A V Z s r r S d p p p p p A s S A p S X.s C H w p A M.r p d A A d A A S j s p s s V G V h h w h #.:.C s h @ ",
"d 4.s C Z s h 6 $ r h V A r r r I A p r h p p A s S C r S H s A A w r h N.w r p s p p s d A s p r p r V V r r y 6 s _ =.C D I 6 ",
"_ :.s C :.V s @ 6 r V V V s r h H A r r s r r A s S C r S D p A A r h s b.r p r s s s s C C s s r p r V F r r y e s C { C C A 6 ",
"_ y./ C :.C h @ w h h Z Z A r A H V r r s s s V V Z V r Z #.s s S w h S H s r r p s s s C C s s p h r V A r r s e p C *.C C S 6 ",
"_ w./ C 0.C h @ 6 h s Z Z A r A H Z p r s s s C V Z C s Z 7.s V S w s Z H s r r p s s s C C s s p s s C S r r s 6 p _ | C d S 6 ",
"c w.] / 0.C j @ 6 s p C Z Z p A D Z s r s s s C s C C s #.:.s s Z w p C D s r r s V s s C C p s p s s Z F r r s 7 p / | C d O.6 ",
"d w.] / w.C j @ 6 s p C C C p d C C p r p p p C p V C s #.;.s s C w s C #.s r p s s s s C s p p p s s Z D r r s 7 p ) w._ d c.e ",
"d w.] / x._ j 4 6 p p C _ _ s d C d p r p p p d s d C s _ #.s s C w s C 3.s p p s s p s d s r r p s s Z D r r p p a / w._ _ c.p ",
"d s.| / x.) O.4 6 s s C / =.a a C d p p s s s C d C C d ..#.p d C w d ..3.s p p d s p p d p e r p s s Z D r p s p a / s._ _ v.p ",
"a w.| / x.) O.4 5 s s _ / *.a a S d p p d d d C d C S d .._ p d d 7 C ..3.s p s C s p s A s e r p s s Z Z r p s p a / | / _ v.0 ",
"a w.| / s.` O.5 5 d a _ / | a a C d p p d d d C d C C d ..C e s s 7 C =.=.p p s S s p s A s r p s s s C C p p s p a / s._ _ o.7 ",
"s y./ ` s.| d 6 6 s d _ | | _ d _ d a s d S a C _ d _ d #.C p e s e C _ { s p p j d p s d p e e r A p ) _ a e s w s i.Z.v v o.7 ",
"r -./ ` p.` d 7 6 s _ / s.| / C C d s s d j p d _ d _ d 3.C p r s w C ] { d p p j a p s d s e e r A s ) =.a e s w d i.Z.v v o.6 ",
"e =.` v p.` d 7 6 s _ _ g.| / C / d s p d j p d C d _ d 3.C p r s w C { | d p d j a p p d a e e r A s =.=.d e y w d i.g.v c X.6 ",
"w =.` v p.` d 7 6 p _ c | / _ C _ d a s d S s d C d ) C 4.C p r s e _ { } d p d j a p s d d p r r A s { =.d w r w d i.g._ c S w ",
"e o.` v p.+.d 7 6 p O.c g.` =.C _ d d s j S p d d d ) C 3.C s p d e _ =.| a p a j a p s C d p r p C s { =.d r r 6 d i.g._ C C w ",
"w =.` v p.+.d 7 6 p O.c g._ ) d _ d s p d j p a d a _ d 3.C s p j e _ =.{ s p a j a s a C d p p s C s { -.C w r 6 d | s.` d d w ",
"6 O.v v f.+.j 6 6 e O.c g.c _ d _ a s p d n p a d a _ d =.C s p s 7 _ { { s p p d d d d C s p p a C p / =.C w w 6 d ` s.` c s w ",
"6 O.v v f.+.j 6 5 p v.c Z._ =.d _ a s p j O.a a d a _ d =.C s p p 7 _ { { p p a d d d d d s p p a d p _ =.s w w $ d | p.` c d w ",
"6 O.v v f.+.d 5 4 7 O.d f.d _ C _ a a p n O.a a d a _ d =.C s p d p =._ _ a p p j d d a C p p p p _ 0 ) o.h t w 6 p | d.v v d 6 ",
"6 O.v v f.f.j 5 4 7 n c f.c _ C _ a a p n O.a a d a _ d =.C s p s e _ _ _ p p p d d _ d C p e 7 p _ 0 3.A h t i 6 p p.d.M v j 6 ",
"6 O.v v f.f.j 7 4 6 n c +.c _ C _ a a a n n a a c a _ d =._ s s h 7 O._ C p p p a O.=.a d p p 7 a =.7 X.i u $ $ 6 p p.d.M v n 7 ",
"6 n c v f.f.j 7 4 7 c c +.c d C _ d d a n n a a c d _ d -._ a s g 7 C _ d p p p j O.=.s d a s p p S e I L.P.K., $ p p.a.M v n 7 ",
"6 O.v v p.f.c 7 4 e d c ` c d d ) d d a n n a d c d _ d -._ a d g 7 d C d p p p n O.=.a C a s e s A A W )..X].3 $ p p.d.v v j 7 ",
"7 o.` v h.f.n 7 4 p d c ` c d d ) d d a n n a c c d _ d =._ a d j 7 d C d p p p d n =.d _ a p 6 w r u J {.XX|.1 ; p +.a.v v j 6 ",
"e =.` ` h.f.n 7 4 p d v ` v d d _ d a a n n a c c d _ d =._ a d j 7 d d d p p p a d _ d C p p p i u u J _. X X2 ; y | p.v c j 8 ",
"7 O.v v p.p.d 5 4 p a v ` v d c _ a a a c c a c c d c d =._ a d j 5 a d d p p p a d _ a d p d c.~.!.T.Y.[.}.'.2 # y ` p.c c j 7 ",
"7 +.c v p.` j 7 4 p a c v ` a d *._ a 0 n a a c c a c c _ ) p j j 7 p d d 7 p p p d d a d p p e e y # < /.(.'.3 # y O.f.c x n 0 ",
"7 +.v v p.v d 7 5 p a v v ` a C *._ a 0 b a a c c a v c _ ` a n j e p d d e p p p d d p d p p 0 5 8 # : U.I.R.> $ f n +.c x n 0 ",
"7 v.c v p.` d 7 5 p a v ` ` a C *._ a 0 b a a c c a c c _ ` a n j 0 p d d 0 p p p d d p a p 0 0 5 y w N W.W.W., 6 f n +.c x c 0 ",
"0 v.v v p.` d 7 5 p a c v ` s C =._ a 0 n x a c c a v d _ ` a j n p p d d 0 p p a d a p a p 0 p 4 f w B Q.`.^.# t f c +.c x n 0 ",
"0 v.v v f.` d 7 4 p a c v _ p d ) _ p p n a a c c a n d c ` p d n 0 a d O.p p p a d a a j a 0 p 0 g i P !.`.E.$ 8 p c ` c x n 0 ",
"0 v.v v f.` d 7 4 p a c c c p d ) n p p n d a c a a c a _ ` a d n 0 a n O.p p p a d a a j a 0 p 5 5 6 r W T l $ 8 p c +.c a n q ",
"7 v.v v f.v d 5 4 f q c c c p d _ d p p n d a c j a n a _ ) p d n 0 a n o.a a p a a p a j a 0 0 0 7 5 h B w ; t 6 0 c +.c a c a ",
"7 v.v v f.v j 5 4 f q c c c p d _ d p p n c a v c j c a c ) p p n 0 a O.v.a a p a a p a j a 0 0 0 0 7 s r w 6 8 4 0 c +.c a n a ",
"5 +.v v ` v j 5 5 g a n x n p s C a a f j d a c d a n a d _ p p n 7 d O.O.a a p a a a p a p 0 0 9 0 5 s h y 6 8 5 p c ` c a b f ",
"7 v.` v p.` n 5 5 g a n c n p p C a f p j d a c a a n a d _ p p n 7 d O.O.a a a a a p p a p 0 0 0 0 5 s s w 4 8 5 0 j v c a j f ",
"7 Z.p.p.p.+.n 5 5 g b c c c p p C a p p d d p d a a c a c ) p p n 5 d O.O.a p p a a p p a p 0 0 0 0 4 p p 6 4 4 4 0 a c a p f 0 ",
"0 Z.p.p.p.` n 5 5 g n c v c p p C a p p a d a d j a n d _ ) p p n 5 d O.O.a p p a a p p a p 0 0 0 p 4 p p 6 4 5 4 7 a c a 0 f 0 ",
"0 Z.p.p.a.` n 4 4 g n c m m a p d s p p a d p d d a n d _ ) p p j 5 d O.O.p p p p p p p a p 0 7 p p 5 p p 6 4 5 4 7 p d a 0 f 0 ",
"0 g.p.p.h.| n 4 4 p m c +.+.d p d s p p a d p a d a d d / ) p p d 5 d O.O.p p p a a p p a p 0 7 p p 5 s p 6 4 5 4 5 a d a p f 7 ",
"7 g.` p.a.| n 4 4 p m c +.` d p a a a 0 a d p a j 0 d d / ) p p a 4 d X.o.s p a d d p p d p 0 7 p p 6 s p 6 5 5 4 7 p j s p f 5 ",
"7 i.` ` a.` n 4 4 p m x +._ O.p a a a p a d 0 a a 0 d d ) *.p p p 4 d X.o.s s a d d p p d p p 7 p p 6 s p 6 4 5 4 7 p S d 0 f 7 ",
"6 =.s.p.p.f.c 4 4 p m c +.` d p d p p p a d p 0 a p n d -.O.s p p 6 s X.X.p s p d p d 7 g p 0 7 p p 4 h y y @ 4 @ 5 j j p p 5 5 ",
"6 O.| ` p.f.c 4 4 p m c +.c d p j p p p p d p 0 a p n a v.O.p p p 4 p O.O.p p p d p d 7 g p 0 7 p p 4 s r y @ @ @ 5 j j p p 7 5 ",
"6 _ ` ` p.f.c 4 @ p m c +.c d p d p p p p d p 0 a p d a o.O.p p p 4 p j j e p e d p a 7 d p 7 7 0 p 4 r w e @ @ @ 4 j j p p 5 5 ",
"6 _ v v f.f.n 4 o e m c v a d s g p p p p d a p a p d p o.C p p p 4 p j j 7 p 7 p p a 7 g p 7 7 0 p 6 r r e @ @ @ 4 j j p p 8 5 ",
"6 _ v v h.g.n 4 4 p m c c a a d g p p 7 p j p p p p d p X.d p p p 6 p j j w p 7 p p s 7 g p 7 7 7 p 6 r r e 4 @ @ 4 j d p p 5 5 ",
"6 O.` v f.g.n 4 4 7 n c c a a d j p p 7 p j p p a p d p X.C p p e 6 s j h w p 7 p e s 7 a p 7 7 7 p 5 r y w 6 @ o 4 g d p 0 5 4 ",
"6 O.` v p.f.n 4 @ 7 j j c a a d j p p e p j p p d p d p O.j p p e 6 s h s 6 e 6 e e h e g p 7 7 5 p 6 w r 6 6 @ o 4 d d p 0 5 4 ",
"6 O.` v p.f.n 4 @ 6 g a c a a s j p p e p j p p d p d p X.A p p e 6 p h s 6 e 6 e e h e g e 7 7 5 e 6 6 y 6 6 @ o 4 d d 0 7 4 4 ",
"6 d v ` p.+.n 6 @ 6 p j d a p p h s e e s s p p s p d j j S p p s 6 y h h 6 w 6 6 e p p e e 6 5 5 6 6 6 w t 6 + o 4 p d p 5 4 4 ",
"6 d c v ` +.j 4 + 6 p a a p 7 e s p e e s p p p s p s s j A p r r 6 e y h 6 6 6 6 w e e 7 6 5 6 4 4 6 6 w 8 6 @ o 4 p g p 7 8 4 ",
"6 C _ v | V.j 4 @ 8 p a d p p p s y e r h h p p h p s s j A p r y 6 y r h 6 w 6 6 w y e 8 6 5 6 4 6 6 6 w 6 = & + 6 g j p 7 8 4 ",
"6 S _ c | V.j @ @ 6 e p d p e y y r 6 6 e e 6 e p e p r s h w w w $ w w y 6 6 6 6 6 w 6 6 6 6 4 4 4 6 6 $ $ % % o 4 p s p 6 8 @ ",
"$ S C d ` =.s + $ t p s j s y y h r w 6 r e e p p e s s h A r w w $ w w e 6 6 6 w w e 6 8 8 8 6 @ 6 6 6 $ $ % % X o 6 r w 6 8 @ ",
"w H C d ` =.p $ + $ 6 6 7 6 6 6 w 6 @ @ 6 6 4 6 6 6 6 6 w r 6 $ @ + @ @ $ + @ + + + + + + + o X X . X + O . .     X 4 w 6 6 8 4 ",
"w F d a ) _ r w t y y p s s y i h h y y h s p h h p j h h A s h h y i i h y h y e y e e e y y 8 8 $ $ $ $ = * % X X 6 6 6 6 6 @ ",
"$ V p p _ d w w t y e w e r r i y y y y h s p s s p s s s h r h K i z h z i h i i h h y h z z k k t $ $ $ = = * % @ 6 w 6 $ @ + "
};
