/* XPM */
static char *_032db93fa0542c5e807bc7aff726a71Oni9QH05rqg3e2Jr[] = {
/* columns rows colors chars-per-pixel */
"64 64 124 2 ",
"   c #225D01",
".  c #276204",
"X  c #2A6506",
"o  c #2C6806",
"O  c #2B660A",
"+  c #2F6A0B",
"@  c #326E0E",
"#  c #35710E",
"$  c #39760F",
"%  c #336E11",
"&  c #367212",
"*  c #397515",
"=  c #3D7916",
"-  c #3B7619",
";  c #3E791A",
":  c #3F7A20",
">  c #417E17",
",  c #417D1D",
"<  c #437E21",
"1  c #45811E",
"2  c #49861E",
"3  c #48851E",
"4  c #4B891E",
"5  c #448020",
"6  c #458121",
"7  c #468220",
"8  c #478321",
"9  c #458022",
"0  c #468123",
"q  c #468222",
"w  c #478323",
"e  c #458024",
"r  c #468125",
"t  c #478224",
"y  c #468127",
"u  c #478226",
"i  c #468222",
"p  c #488420",
"a  c #498521",
"s  c #4A8720",
"d  c #488422",
"f  c #498523",
"g  c #4A8622",
"h  c #4B8723",
"j  c #488325",
"k  c #488327",
"l  c #488424",
"z  c #498525",
"x  c #4A8624",
"c  c #4B8725",
"v  c #498426",
"b  c #4A8527",
"n  c #4A8626",
"m  c #4B8727",
"M  c #498524",
"N  c #4B8820",
"B  c #4B8821",
"V  c #4C8921",
"C  c #4C8922",
"Z  c #4D8A23",
"A  c #4E8B23",
"S  c #4C8824",
"D  c #4D8925",
"F  c #4E8B24",
"G  c #4C8826",
"H  c #4D8927",
"J  c #4E8A26",
"K  c #4F8B27",
"L  c #4F8C25",
"P  c #4D8925",
"I  c #498428",
"U  c #4A8529",
"Y  c #4B8628",
"T  c #49842A",
"R  c #4B862A",
"E  c #4C8729",
"W  c #4B862C",
"Q  c #4B8629",
"!  c #4C8828",
"~  c #4D8929",
"^  c #4E8A28",
"/  c #4F8B29",
"(  c #4D882A",
")  c #4E892B",
"_  c #4E8A2A",
"`  c #4F8B2B",
"'  c #4F8A2C",
"]  c #4F8A2E",
"[  c #4E8A29",
"{  c #518E26",
"}  c #508C28",
"|  c #518D29",
" . c #508C2A",
".. c #518D2B",
"X. c #528E2A",
"o. c #538F2B",
"O. c #508B2D",
"+. c #508C2C",
"@. c #518D2D",
"#. c #528E2C",
"$. c #538F2D",
"%. c #518C2E",
"&. c #528D2F",
"*. c #528E2E",
"=. c #538F2F",
"-. c #528E2B",
";. c #54912A",
":. c #55922B",
">. c #55912D",
",. c #56932C",
"<. c #54902E",
"1. c #55912F",
"2. c #56922E",
"3. c #56922D",
"4. c #58952E",
"5. c #518C30",
"6. c #538E30",
"7. c #579331",
"8. c #569133",
"9. c #579333",
"0. c #559032",
"q. c #589432",
"w. c #5B9830",
"e. c #5C9932",
/* pixels */
"#.= = * , ^ 1 , * ; * , * c , ; 1 , # c ^ * , & & c 7 * , 7 ; , 4 3 , - & ; c 7 ; O ; c * , C 2 < - & j , , * 7 * , j < , = * C ",
", d , , , d c @ ; 7 ; , * , * ; , 1 X & c , , * ; 7 ; & , c 7 7 1 1 7 < ; ; = # ; ; , * ; c 1 1 - j , - % 7 , * ; + * - & d ..B ",
"# @ ^ * @ 1 & * * 7 ; * * ; ; 7 # G = * , & ; c , ; * * , c c 7 , * & * - , d L , c ; + , c * ; ; c 7 ; * 7 , * B ..c * ; , = 7 ",
"7 # ^ , = c = ..& c 7 ; , , , ^ , d * ; 7 ; - - & * , 7 ; ; , , ; ; ; < < ; = 1 c , # @ < , % , , * * c c ; ; 7 3 4.G * c < @ ^ ",
"7 7 o ; , # G = ; ^ ^ , 7 , ; 7 c = * c , ; ; % & * < 7 - & * ; - , , , ; & # , G = * * ; < - < ; & * 7 7 * - c 2 $ & ; , 7 ; 7 ",
"1 1.1 d ; & .., * 7 c ; 7 ; * ; c & , ^ ; & , ; ; ; ; ; ; * * ; * , ; * * * ; #., * , * & < < - ; , 7 & = ; 7 , 1 & * ; , ; = ^ ",
"# ; ..1 # & ; 7 * ; 7 ; , ; , * ^ & * 7 7 c 7 - - , - * , ; * - * d d 1 c , & - ; * , * & < , - , 7 G = , ; 7 ; # , , ; 7 , = e.",
"& & & 7 7 ; G G , ; c , 7 7 c ; * ; 1 , , 7 ; , @ , ; - < , & ; ; G 1 * , , & - < - ; ; , , * , 7 * 1 G ..& & 1 ; & 7 j ; , , = ",
"= 1 1 ..d & , 1 & ; < & , * ; 1 & & , - ; ; c 7 = c , 7 * , ; * C * , c < , 1 , , , , = @ d , G G # G ; 7 , @ - d 7 1 , , , - % ",
"; 7 , d , = , 1 * ; < ; , * ; , , ; @ & + ; ; & * ; , * , * 7 ; 2 L d * * , , ; * , * , * 1 , 1 1., , # * , ; T # ; 7 7 ; ; ; , ",
"= 1 & , ; 7 d 7 & * ; 7 - - ; , ; 7 , < % , , , 1 7 7 , 7 * 7 , 1 ..d , < * & 1 * < & 7 , ; , & & * = 7 7 7 * % , 1 1 , ; ; ; ; ",
"1 c = 1 , #.G 7 & & = c & - - - * , #.7 , & ; & , d ; 7 * * & * , 7 , , , * * c - t ; , ; - ; @ ; c ; 7 ; - & . , , , , , 7 7 < ",
"1 1 = = * d = # , , , c & - * * - * 7 , 7 , j - = 7 = 7 ; ; - * ; , , * @ , ^ 7 - , T * * , ; ; ; ^ * , * , T t # , G ^ , * - , ",
"; ; , * ; 7 ; & , , , , ; , < , < , ; d ; c E 5.; 7 c , c ; t ; * & , 7 = 1 c * & & j & * 7 7 d t 5.t 7 * % * % , , 7 , * @ % * ",
"; ; ^ , ^ c c 7 * ; ; & , 7 c 7 t < , c & & & < * 1 d ; , * < & & % ; c d , * & * & , * 1 , 7 c % & * & * * 7 t , = * * ; ; , 7 ",
"* & ^ * 7 * ; ; * ; - O ; , 1 , ; + * 1 ^ ; ; - & c , , * 7 7 - % t , # = , ; - , * & , G # 1 , ; - < ; , & * & ; 1 G #.c , ; < ",
"% - < - & , & . = 1 & c ; ; ; % - ; < & * ; c d 7 7 ; * ; 7 , ; = , , 7 & 7 < & & , * * ^ * % & 1 .., 1 1 & , # % , < ] < < * ; ",
", & & ; 7 7 - ; c , ; ; 7 ; < * % & t < , @ ; d ; , , ; ; ; , 7 1 ; & ; * c , @ , , , ; c ; 7 , ; d * , 7 , G d ; , ; * % < , ; ",
", , ; & , c , c G 7 # , & ^ ; , t & & ; c ; ; , 7 ; * ; 7 7 , , d , * * & ; , ; , = ; ; ; ; T , @ ; @ * ; & , , ..= @ , , , , ] ",
"= 7 1 & , , ; ^ c 7 & , & #.; c k - , , 7 & , ^ 7 , * ; , 7 , * , , , , * * ; < * ; ; ; ; * , & * , * ; , * ; ; , , = * ; 7 , & ",
", ; , 1 c = # 1.7 * ^ & ^ , 7 c , ; < < 7 * , 7 * , t , * * ; , = ; 1 7 c , * & ; ^ , , 7 , * * , < - ; , - ; < G = = G ^ & @ ; ",
"d , ; , d , # , & * 7 @ c & * , < - * % , ; , * * , 7 , ; ; , 7 * , d ; , * * - , ..= , c , % ; 7 , * & * * * , , d c ; , 7 ^ c ",
", , , * ; 7 ; * + , * ; ; * & 1 ; ; , * & @ , c 7 ; * , 7 , , 7 = d c & * & ; 7 , 1 # , 7 ; & - c , ; * , , ; 7 ; & ; ; 1 = d 1.",
"; & ; , , 7 7 #.* j , ; ^ ; G .., * , , c ; , , , & * 7 , + @ 7 ; d 7 & c 7 ; & , & @ ^ 7 , , - ; * * ; c c ; 7 - ; j ; , > B 2 ",
"; * ; 7 ^ ; 7 , c * & ; c c * ! 1 # * ; - - T % 1 = ; & < , ; W ; ; ; * % - < , c & G 1 # G 1., * 7 = 1 = d c & , ^ 7 @ * < , 7 ",
", ; , 7 7 + ; 7 7 7 , * 7 c ; * 7 & * * - - t & c ; & & E 7 , % , ; , 7 , , 7 7 , = c 7 = , 1 G - , , d ; ; 7 ; , , , , 7 ; & 7 ",
"7 ; ; , ; X & d * 7 ; * , c 7 & * * , < ^ 7 ; @ - , - ; , * 7 @ , = 1 ^ G c 1 = ; , , ; d 1 # , c ; & 1 ..d 7 * , , , , ; ; , t ",
"c , & ; , * , 1 ; , & , c ; 7 , < , , * 7 7 1 d % - 7 * @ # d = , , 7 7 , 7 1 & & 7 , & 7 c = & - * 7 c G = , ; ; , , , * ; c 7 ",
"c c = , 1 d c , 7 , & c c * , 7 < ; , @ 1 1 1 ;.; & j @ & c d , 1 ; ; , * = , 1 & , 7 , * , G c & ; ^ 1 ; # ; - ; * * ^ c & ; , ",
", ^ , , * , , * ; ; * , ; ; 7 7 - * 7 ; ^ G 1 B c * ^ & , q.7 ; ; # = G d * = 1 c ; ; 7 * & G c , 7 G = & , , * , < ; c c & , , ",
"& 7 ; , & - - & ; * , ; * , c t c * , & d ..1 d , , #.* , ^ ; ; * & , ^ c , ; * T ; & , ; * 7 = - 7 1.7 # , , 7 ; ^ - * , , d , ",
"& ; & < - < , ; c ; ^ c ; 7 7 c d # , & G #.; & = 3 d & , , - - , 7 , % @ , 7 & @ , , 7 , ; 7 = - * , 1 ; #., ; @ , + ; ^ = ; , ",
"7 % ; c * & 7 1 1 1 1 @ ; , ^ d * ; , , , * ^ ; 1 d * @ G 1 = d C 2 > = G ; < , , * , , ; * * 7 ; c , - 7 c c & 7 & & ; * * ; ; ",
"+ ; , , c ; & d , 1 d , d 7 7 ; * & . , & * ; c G , d 1 d c #.d 1 d = , , * * - * c 7 , + ^ , , d c ; & & ; 7 = G , ; 7 , ; - - ",
"* ; , , , 7 7 , = , 7 7 T , ; & c c * & ; ; 7 c > 2 G , d c c 7 X * & , * & * 7 7 ; & , * c * , = , 1 7 * & , ; 1 , = , c 7 < 7 ",
"; , 7 , * 7 c ; , = ; , < ; ; = c ^ c & 7 ; , ; * 1 1 & 7 ; * - - < ; j , * ; 7 , , c * , 7 1 * = = 1 #.< - , % , , & & , 7 < c ",
"X ^ c * 7 , & , d , ; ; ; ; ; 7 ; , ; ^ c 7 @ , d $ 1 1 ; & , + < < ; ; t * , , ; , 0.7 7 ; 1 c { = & 7 , - < @ & , , , c 7 % @ ",
"= , ; * , 7 ; ; d 1 * ; - ; - , ; ; , , , 7 , ^ d , 7 , 7 * - * ; * & & 7 * , ; < % * ^ c , & G 3 , ; 7 - & 7 7 d 7 * @ & ; < 7 ",
"^ & * , * ; j * 1 1 - , - , - , , & 7 + * ; 7 , ; ^ 7 & c ; * c d G 1 7 c * - - - & & & ; ..1 & & , 7 j ; & 7 #.@ & 1 d 7 7 , & ",
"# = 7 c ; O + , 1 7 ; < - t < 7 , & , ^ , c * * & , 7 & ; ; d c = 2 > G , ; * , < & c * c ; d G 7 7 * * - * , 1 7 1 7 ; @ * ; @ ",
", , , d 1 @ 7 & * * , ; * , X , = ..= c = 1 1 2 & & c 7 * ; , , , * j ; 7 @ 1 G 1 = , - * < , = - , j & < < * c ;., , ; ; & , d ",
"; 7 7 d 1 * ^ * * - ; , , < * , * , ; & c = 3 = 7 7 7 ^ 0.7 @ c * - j & , & 7 , w., @ < t * = = < 7 ; * j * & ; C = , , < & ; 1 ",
"& 7 1 d , 1 #.< , ; & * ; * c 7 * ; c * ^ ; #...c , 7 , , 7 7 7 < + * , ^ @ & 1 1 d ; j - X 7 1 , , @ * c & * * 1 & , 7 t * , 7 ",
"- c , d ; 1 c , 7 * ; * * * c 7 * ; & % % @ & = ; * 7 * + , c ; ; * ; * c , 7 ; > 7 ; < ; ; ^ , ; ; * * 7 * , , B = , , < * 7 c ",
"7 c ; 1 ; , - - , & #.7 7 7 ; ; ^ 7 @ ; , #.; = ; , , , ^ 7 @ ; ; , ; & , c c * G 7 c c < , 7 7 7 7 ^ * ; ; ; 7 G , 1 , , & , 7 ",
"; , * , 1 , - < 1 = 1.7 , 7 * , < * % * T #., ; , ; , ; 7 ^ ; * 7 = & ; 7 7 , ; , 7 .., @ ; , 7 d 7 0.; = 1 , 7 > & , , < * , 7 ",
"+ * , , d 7 ; < 7 1 1 * & , ; d c ; < * 7 , & = , ; 7 & + c #.* = d , & * c 7 @ = , ; & * c j + , , d ; 1 1 c 1 & # , , < * , 1 ",
"O ; ^ , c , * - , c & * * 1 , d 7 * * & , c 1 ..; c ^ ; ; ; * c 1 , = , , ; * * ; 1 ; ..G * 7 & , * & ; d ; c & 1 = 7 , , & * = ",
"; c d , G 7 ^ & & t T ; ; 7 t , ..1 # , , , * < * 7 & ; 7 , c @ & d 7 & 7 ; * , = = < % - * & G & ; , , 7 * , & $ 1 ; - & - & , ",
"* , = 7 1 ; , ; - * - ; - & * , * 1 , c 7 7 * - ; c * * , , 7 * 1 1 7 ; 7 , 7 7 = ; < ; * < , .., , ; , c ; 7 7 C & c O.  & ^ , ",
"* , = c = = * , , & ; c , * ; 7 , 7 * & ; ^ < - * c , * 7 c , 7 1 & * * ; ; 7 * & ; 7 7 * 7 = ; 7 , ; ; 7 ; 7 7 , 1.; * 7 7 & 7 ",
", ^ c c ; , ; ; ; * < 7 * - , & , 7 ; * , c , & * c 7 * 7 c * 7 d = ; ; 1 , 7 , * ; c 7 * ; , * , 7 , , , ; , ; , c * ; 7 c * , ",
"7 7 ^ , 7 , , ; < , 7 , & ; < % = d ^ 7 , * - < * c 7 * 7 , & , 1 d 1 = c ; ; 7 ; ; ^ * ; * #.c ; c 7 , ; , 7 ; , = ; 1 + * t T ",
"7 @ ; ; c * ; 7 T ; ; < ; , c c 1 7 7 , , & * , * , * ; c , ; c & d 1 # 1 * @ ; * ; ^ = d # ^ , * c < , * , 7 7 @ , & & ; ; % T ",
", @ * ; , - & 7 < * & ; , ; , c , = ; , #.7 * + ; ; & 7 c ; , 7 , c d & ; * ; ; * ; d = G @ ; @ * , * , * , 7 c * & & 1 , 7 - & ",
", - , , * , % ; 7 , ; , < - & * G 1 ; & c 7 < ; 7 , @ c c + @ + d 7 d & # * 7 * < j = = d * , , ; ; & c , , , ^ , ; 1 ..= , , : ",
"c = & ; , ; < T ; ; ..G = G = 7 1 & c ; , , , , - < + % ; , E * , , d # & , #., - - * = d ..^ , 7 - < 7 & @ ^ ; ; c 7 1 @ * ; T ",
"1 ; ; , ; * * ; c @ G d & d 7 @ = , ^ 7 c - & % * * ; * ; c 7 , = , ..1 1 , c 7 * ; , , , , , ; & , , ; , & < 7 , * ; & #., - O ",
"7 7 7 , - & * ; ; @ G = * , < & # , , , 7 * ; < , * ^ * * c & , , ; , , G 1 , , ; ; ; , , = * * 7 , * & ^ < ; % - 7 7 ^ #.j - - ",
"c 7 , * & * ; , # 2 G # , , & , , ..1 , c ; < T 7 * ^ * & 7 @ , 7 , # # , , ; d < ; ; , , , , , , ; ^ c ; & 7 - < 7 & 1 7 t & < ",
"< ; * & * , , ; 1 ;., # , c + % = G = , d ; - ; ; * , ; ; 7 , c = 7 ; & & * ; / ; ; , , ; * 1 .., = ^ 7 ; * 7 7 < * * @ 7 % - ; ",
"* * - , 7 7 ; & C 2 = , * j ; & = 1 & * * - * ; & & * 1 7 , , , & , , , ; 1 , , ; ; * * - ; 1 d d 7 ; @ c 7 * , ; ; , , , * - - ",
"& - , 7 t , ; = 1 = * , , 7 c , 1...d 7 & ; * < = = , d d , ; , , ; & , , ^ 1 & 1 ; & & ; 7 1 = , d c # 1 ; @ c t * @ 7 * T - O ",
"* - ; , - * , d d , @ % 0.^ d 1 1 , d c * < * < d 1 G G c 1 , G c , * d ; c d 1 , , ; - ; 7 1 , d & 7 * , 1 , , c ; ^ 1 ; * T - "
};
