/* XPM */
static char *_bf6f6f7d94c4209b057b1aae4ac3bda3h4E0BDBhk1KXMvc[] = {
/* columns rows colors chars-per-pixel */
"64 64 191 2 ",
"   c #8C4225",
".  c #8E4729",
"X  c #8F4A29",
"o  c #92462A",
"O  c #98472A",
"+  c #954B2E",
"@  c #9A4A2E",
"#  c #8F502F",
"$  c #974D30",
"%  c #9B4E32",
"&  c #8E5230",
"*  c #955534",
"=  c #9C5335",
"-  c #945C37",
";  c #9E5836",
":  c #95563A",
">  c #9E5539",
",  c #955A39",
"<  c #9D5B3C",
"1  c #A44F34",
"2  c #AA4F32",
"3  c #A25336",
"4  c #A95236",
"5  c #A3563A",
"6  c #A9563B",
"7  c #A45B3D",
"8  c #AA5B3E",
"9  c #B0563E",
"0  c #B35B3D",
"q  c #97613F",
"w  c #9B613F",
"e  c #A2613E",
"r  c #9D5D42",
"t  c #A55E41",
"y  c #AB5E42",
"u  c #A35F48",
"i  c #B35E43",
"p  c #BC5F46",
"a  c #9D6242",
"s  c #9E6A45",
"d  c #A46243",
"f  c #AB6345",
"g  c #A46946",
"h  c #AB6A47",
"j  c #A56649",
"k  c #AC6649",
"l  c #A56A4A",
"z  c #AC6A4B",
"x  c #B26346",
"c  c #B96244",
"v  c #B3654A",
"b  c #B9664B",
"n  c #B36A4D",
"m  c #BA6B4E",
"M  c #A7714B",
"N  c #AC714F",
"B  c #B2714F",
"V  c #A76E52",
"C  c #AD6D51",
"Z  c #B56750",
"A  c #B46D51",
"S  c #BB6E52",
"D  c #BD6F59",
"F  c #A77252",
"G  c #AC7352",
"H  c #AE7A55",
"J  c #AE7758",
"K  c #AE7959",
"L  c #B47253",
"P  c #BB7355",
"I  c #B57857",
"U  c #BB7956",
"Y  c #B57659",
"T  c #BC7559",
"R  c #B47B5A",
"E  c #BC7B5B",
"W  c #BD7D61",
"Q  c #C15F44",
"!  c #C06246",
"~  c #C5644B",
"^  c #C9654B",
"/  c #C36B4F",
"(  c #C26E52",
")  c #C27355",
"_  c #CC7355",
"`  c #C17857",
"'  c #C3735A",
"]  c #C17659",
"[  c #C1775B",
"{  c #C3765A",
"}  c #C27559",
"|  c #C67758",
" . c #C3755A",
".. c #CA765B",
"X. c #C37859",
"o. c #C57959",
"O. c #C3795E",
"+. c #C17A5E",
"@. c #C5785C",
"#. c #C47A5D",
"$. c #C5785E",
"%. c #C57B5E",
"&. c #C67B5E",
"*. c #C67C5F",
"=. c #C37B5D",
"-. c #C97A5B",
";. c #C87B5E",
":. c #C87C5C",
">. c #C87F5F",
",. c #CA7B5E",
"<. c #D67356",
"1. c #D1775C",
"2. c #DC765D",
"3. c #D17A5E",
"4. c #C17661",
"5. c #CB7661",
"6. c #C77D60",
"7. c #C47D61",
"8. c #C47E64",
"9. c #C47D61",
"0. c #CA7A61",
"q. c #CB7B62",
"w. c #C87B61",
"e. c #C87D60",
"r. c #CB7E62",
"t. c #CA7D62",
"y. c #CE7F60",
"u. c #CC7C63",
"i. c #CA7E64",
"p. c #CB7E62",
"a. c #C67E68",
"s. c #CD7F69",
"d. c #D27D62",
"f. c #BF805F",
"g. c #BE805F",
"h. c #B78262",
"j. c #BE8260",
"k. c #BD8362",
"l. c #BF8669",
"z. c #BC8A69",
"x. c #C4825E",
"c. c #CC825F",
"v. c #C18261",
"b. c #C18162",
"n. c #C48262",
"m. c #C08563",
"M. c #C58466",
"N. c #C68464",
"B. c #C48363",
"V. c #CA8063",
"C. c #CB8165",
"Z. c #CD8366",
"A. c #CA8566",
"S. c #C88666",
"D. c #CC8567",
"F. c #CB8365",
"G. c #C48866",
"H. c #C48966",
"J. c #CA8966",
"K. c #C78668",
"L. c #C48469",
"P. c #CD8668",
"I. c #CF856A",
"U. c #CC866A",
"Y. c #C58B6C",
"T. c #CC8B6B",
"R. c #D08067",
"E. c #D38465",
"W. c #D38266",
"Q. c #D3866A",
"!. c #DA856B",
"~. c #D08F6F",
"^. c #D28B6C",
"/. c #D98A6E",
"(. c #C7916E",
"). c #D0916E",
"_. c #C68D70",
"`. c #CF8D72",
"'. c #D68F71",
"]. c #D48D71",
"[. c #D88E73",
"{. c #DA8D71",
"}. c #CC9274",
"|. c #D59474",
" X c #D29272",
".X c #DC9276",
"XX c #D59478",
"oX c #DC947B",
"OX c #DD9B7D",
"+X c #E09173",
"@X c #E49B7E",
/* pixels */
"a l l j E z L j a Y Y l l l l C r l r u j a j j j z C A A k v i.v 8 @ x m 5 8 8 5 P P b 8 8 S P z z g I I g k l 7 A v n S v [ t.",
"l Y Y L M.L b.E Y W E W K.b.E W A 8.Y L C j C Y j C C l Z v Z t.,.>.m ) { ) y.o.m F.-.o.) ) E.>.L B.B.G.b.E N.E A.'.*.$.$.P $.,.",
"> f f t A 7 A L n k f A 9.L k n t L k k d , l Y G E Y n Z n v S x P x 5 6 f P f y n f v m n S f L G.j.I z n A.M.n T v A [ P [ [ ",
"f n v f T y S S > 3 = 6 f 7 = 7 t A f k z j L E z Y P k n n f y f X.S f f n $.m 7 x y n S n n > d L N z d < L L 7 v y f v 7 8 7 ",
") ' D D R.v D Z v 0.0.D D D D $.Z P f n E L L z A O.P n T 0.0.u.n [ T $.O.P C.$.[ V.O.C.P.Z.[.P.Y E f.|.^.Y P P P Z.$.9.t.P $.t.",
"x v y x ' 6 y 5 % v Z 6 % 3 6 x y k > y S n k t f k 5 % 5 y b ' T E P 9.T f k k 3 f > 7 7 t T +.L l d E P 7 d k t A f y f 8 S t.",
"y x x v ' 8 y y y Z Z v x x x D f S f n P n S A [ [ S m D S ) u.'.].C.I.8.C A Z n P Z A Z C 8.T.M.E n E E n E +.*.P.P n n f S [ ",
"v S S T Z.f D T P S S [ t.T S $.P Z.$.[ P f S [ y x m ' ,.S b ' O.9.A L A Z T Y z Y P 4.T z Y P A E E T.A.E E n A +.S P *.[ $.*.",
"> k 7 d f > f L z L k A z t t > y v ; = 3 = f m v x % y b 8 8 y f A k k d d Z t < d d A z > < : d L k t > > v f f = o y f = 3 7 ",
"Y E l A Y z Y W E B.E E L l Y Y f S f v S v ) { { R.( ) ,.{ ,.$.S 9.P T 4.9.I.T P T A 9.4.P 8.9.L T A T +.O.9.L X.t.P O.P n P n ",
"z L r l Y z z z l L l j < , L E k P n P ) x n v x ..m x v b ) S f A v A T O.C.P 9.O.n A A n [ T n v y P Z.*.[ f v 9.[ n f n *.P ",
", j < l L l j , j z j j a < Y f.f P f v n 8 8 6 8 ( x x v x n x y n k n A S i.[ [ P y y y 7 k y f t = n [ n k 3 > n f 7 ; y [ P ",
"L M.j.K.}.M.b.E l L l L L L b.E Y *.L P >.{ ,.y.,.W.| W.Q.o.o.o.) F.$.$.[ ) ^.Q.Z.Z.[ *.V.>.Q.t.$.$.P Z.Z.[ V.Z.t.Q.9.t.$.T C.*.",
"r A d d j < j j j z d A Y L E n e k < d n n P ) 8 y 3 f n 3 ; 5 6 f 6 3 = + 8 f 7 x 8 f x f n f y v y f y 7 S [ f f y S A 7 7 > ",
"l E l j z z Y Y A L l L E Y E L L x.B U >.) o.| m -.m ) o.m P P ) o.m P ) n | P n ) b n x f m f n ) n n n n t.$.n n f P P k n v ",
"A V.P T V.C.].^.P T n L T P O.L z U B U V.) ) m S Q.>.` X.` F.V.>.>.m o.F.o.,.) ) F.) ) m m -.) { y.) ) ' $.Z.) t.Z.P P S S t.t.",
"y v 8 y y 7 v y y n y 6 6 y S x 8 8 = x P 7 8 x y S f 3 + + f f L f , h f = 6 6 y x 8 y y 6 y 4 4 0 4 i x 8 8 3 y 8 3 8 6 8 S n ",
"O.Z.t.P.Z.$.Z.>.$.,.S { { D q.,.S *.P $.Z.[ [ S [ t.[ t.t.[ C.N.z I L +.N.$.t.P ) ' S { { ' y.,._ ..( ..,...3.) v | ) ) b S o.8 ",
"n E P O.P n T P T P n X.[ f n S f [ n n P S S f 7 7 3 S [ k v f d E E Y P $.*.y y v x S S m [ S m S x m S m o.P S o.o.V.P P P 8 ",
"l L l n l 7 n L L P n E T f k f f A 8 t v f v f f v y P T v n f d I z d d v S 3 O 3 5 x x 6 y 3 f x 6 y x f n f f = + f e X : ; ",
"f.G.j.Y.M.I b.N.E K.N.M.M.b.C.P P P v P 9.A P [ P *.P P P P $.P E M.E b.N.t.Q.t.Z ' { y.y.[ t.[ Z.^.*.Z.^.Z.^.V.N.P n J.n.B +.N.",
", a < z z , < , # d > , < d l > + % o t v % $ ; y P k 8 5 t S v > d 7 n n t f y 8 x 8 y y 6 v v f f 7 f k f h < k L L U L B E d ",
"E E L B.M.Y E Y Y E L Y P L *.T n P n [ V.P P L A O.P P P n [ P n P L P P f n f x S v m v f P P f v d v n k n f 7 n n z f h B * ",
"OX XE K.T.N.^.^.^.A.P +.O.A $.t.*.^.[ P O.O.N.+.+.N.+.^.Q.P [ P N.T.N.O.[ P y.$.) u.y.Q.Z.[ t.O.*.V.X.V.Z.V.^.x.x.*.X.Z.*.P V.P ",
"L P 7 = = 8 v 3 3 = % v f + 7 S y P t > 8 f k d 7 k t 8 7 3 f 7 d P d .   ; n 3 3 8 y m v = y k f x = = = = f 7 = y f n f = 8 8 ",
"S t.X.$.[ P { n n { { R.R.' Q.Q.P Z.S n P Y E L Y M.b.C.9.X.t.P L +.P T P S [ n x S S X.P v P P X.,.m m S m { m m m x P m 8 x x ",
"[ Z.t.t.P x S m m y.{ { ' ..W.' S $.S P +.L L N L f.E 9.+.P $.P C.+.L 9.V.P $.,.' u.[ [ P P C.+.*.F.) o.F.,.E.{ E.!.| ) ..-.d.( ",
"n P v v 8 @ 7 y 6 x 6 3 5 8 v 6 @ 3 % 7 f * * & a l d f f 7 v f k 7 + 7 y = 8 f v m 5 = $ : f 7 ; 8 = 6 f x n 6 8 P 8 O % v m O ",
"+.A.C.'.^.*.Z.V.t.Z.[ y.R.y.Q.R.{ t.P *.J.E f.j.G.T.M.T.P.t.^.Q.X.9.[ Z.Z.$.y.' t.Q.[ P P E N.P E *.P X.c.c.E.X.o.Q.>.) o.R./.{ ",
"L Y k n A n P A A n k X.[ f f f n P 8 t l l L I j z l L A f v f n P n n n v ' S v P S [ X.P E k L E B B L n P k P n x *.>.n P o.",
"E f.l d 7 j P L L L k P L 7 d t 8 n 3 = < w l s w j d z k 5 y 7 f n y 7 3 3 v Z x n v P P k n f g N g z g e l e d e : h k : 5 7 ",
"E T.b.E E b.^.b.A.^.N.P.P.t.[..X,.+XQ.Z.^.T.T.E M.G.E A.V.) y.y.[ C.V.^.Z.P t.Z.Q.P.X.N.O.n E b.L n.x.n.x.E n.X.*./.*.X.X.>.F.x ",
", > > L L > 3 ; f S y 6 3 4 b i 4 6 6 m P 8 f 8 v P x 8 8 i ( x t k Y V.E k t f A E z k k z E L d.c 4 ) ..6 5 6 b S 6 1 0 b _ c ",
"n n f P P A *.V.P { v v b b ' ( b b x -.>.n P ) ) -.m m ) ( 1.( f z Y E E L z l E E C z l k L n 8 0 0 ) ( 8 x x x b 6 8 i c / 0 ",
" X|.M.A.A.A.oX@X9.t.P t.Z.,.d.....d...y.,.$.Q.^.=.o.m -.d...d.| *.b.V.V.U.U.V.E b.V.Y b.V.9.T.T.x./.^.^.^.T. Xb.M.T.N.^.^.F.^.c.",
"< l < < , * d < : > : k v > 3 = 3 S x 3 = f P f f f 3 x n 8 x f f k d < < j d < < < * k z d L Y L B - - g N G - a s a z l < d e ",
"L B.f.M.M.b.T.b.z L z E Y d z n m >.) P m P *.P P U n X.P x P ) O.b.E L L E 9.E L A k Y Y z Y E T.k.M H h.h.z.K R h.I j.f.L E U ",
"I b.E A.T.M. XK.T. XG.G.E Y K. X^.$.P /./.P X.Z.V.P.*.N.X.n *.t.P Y L L L Y E E U.T.9.U.U.9.T.U.M.H.k.(.Y.J W W W l.W B.9.E N.+.",
"d d : l n d k f l L f j 7 < z z t = + v A : > d k L f f 7 > f d k d t f z z k k t k 7 d d d A k f L A E C < r r j A k f x v S x ",
"O.T L ^..XZ.^.P.+.^.K.T.T.K.^.b.X.Z.*.A.^. X XE M.^.N.E E E A.E A.Y A +.U.V.T P P 9.P L P T C.T P *.T 4.8.4.a.P 4.Q.w.' 5.d.!.' ",
"S Q.v n n v ^.P f v k P S t n P X.A.P L E A.T.P b.E z M.T.L l e L A.O.Y Y E T.O.A L A V.C.L P A T C.v Z T 4.oXI.U.s.D s.!.S m ' ",
"8 D y y 6 3 m f % 7 3 f f y m S E +.f d f k L d d d , z N < < * t n d d t d A k t k t z z 7 t > t k + : < < Y C u z u S [ f 8 8 ",
"/.{././././.{./.y.Q.0.u.R.R.{.^..X|.V.U.T.P.'.U.9.K.M.T.T.M.Y.M.V.T.9.C.C.9.^.P.O.U.9.9.9.T 9.P E n.G j.M.I _.k.h.}.Y. XOX X^.J.",
"P y f v [ $.m m D ' v v v m { n L L z O.9.L P n P 9.Y Y Y I k.L A P k P P k P A A O.A A A A O.n d N g k.k.l K l F h.F F R R g.E ",
"f > 8 f n n f f y v 7 8 y v ' v n z f T T f f t n P l l z G R l 7 y 7 n n f n k f A f y y f A f ; h e E E a z s a G q - s g N h ",
"+.K.^.T.M.+.A.^.*.Z.[ $.Z.Z.[.Q.U.U.O.Q.^.w.Z.i.i.T.9.b.Y.Y.}.M.P $.[ C.^.P.'.Z.i.Q.$.w.O.[ C.$.| E.| E.Z.P ].K.E T.E E G.n.J.x.",
"d R N N g < Y z L P k P P v S v z A k S D Z D Z v A z L G V K C k S k n S P O.Z T [ A T T Z T D ! <.Q ~ p 0 ,...x ) v m [ b b x ",
"G H.g N L L T.k P P n E [ f n n n [ P [ T Z Z t v P Z Y C a l l A O.Z k k n Y f f f 7 n n t v n ! 2.^ ^ p i d.' y v 8 x m y f y ",
"(.(.(. X XK.K.^.Z.t.t.Z.V.*.9.Z.Q./.{.@X|.P E +.Z.^.].[.V.N.}.I Y B.U.].XXT.B.T.E N.E N.E n =.x.E./.W.Q.W.R..X.XZ.oX^.oXOX8.4.I.",
"s s g l j 7 7 f P m v n n k v A 6 x v t.+.d f k f n n S f f Y j : r d j A j t f k P L =.P d h h f n x m v 8 f t u Y l j C j l C ",
"R k.H.k.E E O.X.$.P S S P P P [ m ( P P.A.L L L P $.[ X.P E T.E P T P Y w.Y A P n L k L B h P P x P m P P f k t C V.L l A L W E ",
"N E B.E U +.*.O.*.X.[ $.V.A.A.A./.Q.$.Z.A.E N.N.P *.[ [ T E T.B.Z.u.[ [ t.' P [ t.t.P *.*.P Z.V.*.F.X.>.t.X.C.9.9.].V.B.B.B.`.U.",
"< l n l f k n k 7 7 7 t f k k f y 8 + > < : f k f S v n n k Y L S m i i m v y v y v x P Z 7 3 + t f > 8 d t n k < t r z l t l j ",
"E +.9.+.E E [ P [ +.*.+.+.+.+.E P { m +.b.E b.+.A t.) [ t.P E E ) ) / ( ..) ) ,.{ y.0.Q.Z.T T S T *.P *.9.X.V.E E L P `.I.W I.L.",
"P A A P P A v v L P T A n n L L S [ P +.E L Y n S F.) [ V.P E +.P ) ) ) -.| ) t.[ t.T w.4.P I.].Y +.P +.9.P E A E P L 9.T P U.T ",
"f 3 > y f 8 3 5 d k k 7 : < f v 3 y 8 k j , d > y S y f S f f B 8 x x x v 8 7 x 7 k k A Z u A Y L Y l A A k A f A A k d = t A > ",
") t.$.Z.V.$.Z.9.9.A.T E P L *.T P *.P E E E T.Z.Z.F.,.$.[ O.N.A.` F.=.=.=.X.Z.N.Y E B.K.K.L.K.K.W U.W B.V.9.P.9.9.9.C.Q.^.Q.Z.9.",
"v S n S A k P n T E A E T n P P P $.n z l l U L f n ) { [ P L B k P n n h d B l n L Y Y L l j j j L L E E L Y k A P T T P Z n v ",
"n P n P S v P L f f t A n 8 f y f n t 7 < < l f 3 y m S n f > * * e < d h h Y L * , a d r < : : * a a l l j k < f z A n f y y y ",
"P $.P 9.*.P +.E V.^.Q.[.[.Q./.y.Z.^.C.K.M.k.T.K.Z.Q././.Q.C.9.+.M.).J.J.M.b.K.E P E E b.B.N.A.U.W Y.j.L.K.B.T.b.T w.V.V.,.$.,.y.",
"5 y 8 n n 7 f d f P A v v S ' i y v j z l < d < 7 y y y y f v n d z j j j d z d k k f f d f f k r l r a d r j r k v v n m S S S ",
"f k f P L f k l k O.P n m ( ..b f n l Y L g z h f v v b v n n L d l d z Y E T.V.[ ) P m n b m P l J G Y Y C L k f f y y x x x x ",
"C.Z.*.^.T.E b.N.+.C.$.R.d...d...[ 9.E K.T.B.T.T.Q.!./.Q.R.t.9.9.B.U.E E 4.O.Q.$.Q.E.R.W.,.-.3.y.K.}.L.Y.Y.K.`.L.C.Z.Z.Z.F.W.W.E.",
"A n d n f : d j f t 3 S S 4 9 i S L l L G j L L P ) ) S m n n n A L j k k k P v v b b x 0 4 2 3 j V a r r r C k k n S m v b ( | "
};
